<?xml version="1.0" encoding="UTF-8" standalone="no"?>
<!-- Created with Inkscape (http://www.inkscape.org/) -->

<svg
   xmlns:ns0="http://www.iki.fi/pav/software/textext/"
   xmlns:dc="http://purl.org/dc/elements/1.1/"
   xmlns:cc="http://creativecommons.org/ns#"
   xmlns:rdf="http://www.w3.org/1999/02/22-rdf-syntax-ns#"
   xmlns:svg="http://www.w3.org/2000/svg"
   xmlns="http://www.w3.org/2000/svg"
   xmlns:sodipodi="http://sodipodi.sourceforge.net/DTD/sodipodi-0.dtd"
   xmlns:inkscape="http://www.inkscape.org/namespaces/inkscape"
   width="210mm"
   height="297mm"
   id="svg2"
   version="1.1"
   inkscape:version="0.48.4 r9939"
   sodipodi:docname="IPD_a.eps">
  <sodipodi:namedview
     id="base"
     pagecolor="#ffffff"
     bordercolor="#666666"
     borderopacity="1.0"
     inkscape:pageopacity="0.0"
     inkscape:pageshadow="2"
     inkscape:zoom="0.57848045"
     inkscape:cx="386.99067"
     inkscape:cy="462.60678"
     inkscape:document-units="px"
     inkscape:current-layer="layer1"
     showgrid="false"
     inkscape:window-width="1315"
     inkscape:window-height="744"
     inkscape:window-x="51"
     inkscape:window-y="24"
     inkscape:window-maximized="1" />
  <defs
     id="defs4">
    <marker
       inkscape:stockid="TriangleOutL"
       orient="auto"
       refY="0.0"
       refX="0.0"
       id="TriangleOutL"
       style="overflow:visible">
      <path
         id="path4242"
         d="M 5.77,0.0 L -2.88,5.0 L -2.88,-5.0 L 5.77,0.0 z "
         style="fill-rule:evenodd;stroke:#000000;stroke-width:1.0pt"
         transform="scale(0.8)" />
    </marker>
    <marker
       inkscape:stockid="Arrow1Lend"
       orient="auto"
       refY="0.0"
       refX="0.0"
       id="Arrow1Lend"
       style="overflow:visible;">
      <path
         id="path4103"
         d="M 0.0,0.0 L 5.0,-5.0 L -12.5,0.0 L 5.0,5.0 L 0.0,0.0 z "
         style="fill-rule:evenodd;stroke:#000000;stroke-width:1.0pt;"
         transform="scale(0.8) rotate(180) translate(12.5,0)" />
    </marker>
    <marker
       inkscape:stockid="TriangleOutL"
       orient="auto"
       refY="0"
       refX="0"
       id="TriangleOutL-5"
       style="overflow:visible">
      <path
         inkscape:connector-curvature="0"
         id="path4242-5"
         d="m 5.77,0 -8.65,5 0,-10 8.65,5 z"
         style="fill-rule:evenodd;stroke:#000000;stroke-width:1pt"
         transform="scale(0.8,0.8)" />
    </marker>
    <marker
       inkscape:stockid="TriangleOutL"
       orient="auto"
       refY="0"
       refX="0"
       id="TriangleOutL-5-9"
       style="overflow:visible">
      <path
         inkscape:connector-curvature="0"
         id="path4242-5-6"
         d="m 5.77,0 -8.65,5 0,-10 8.65,5 z"
         style="fill-rule:evenodd;stroke:#000000;stroke-width:1pt"
         transform="scale(0.8,0.8)" />
    </marker>
    <marker
       style="overflow:visible"
       id="TriangleOutL-1"
       refX="0"
       refY="0"
       orient="auto"
       inkscape:stockid="TriangleOutL">
      <path
         inkscape:connector-curvature="0"
         transform="scale(0.8,0.8)"
         style="fill-rule:evenodd;stroke:#000000;stroke-width:1pt"
         d="m 5.77,0 -8.65,5 0,-10 8.65,5 z"
         id="path4242-4" />
    </marker>
    <marker
       style="overflow:visible"
       id="TriangleOutL-5-3"
       refX="0"
       refY="0"
       orient="auto"
       inkscape:stockid="TriangleOutL">
      <path
         transform="scale(0.8,0.8)"
         style="fill-rule:evenodd;stroke:#000000;stroke-width:1pt"
         d="m 5.77,0 -8.65,5 0,-10 8.65,5 z"
         id="path4242-5-2"
         inkscape:connector-curvature="0" />
    </marker>
    <marker
       style="overflow:visible"
       id="marker3085"
       refX="0"
       refY="0"
       orient="auto"
       inkscape:stockid="TriangleOutL">
      <path
         inkscape:connector-curvature="0"
         transform="scale(0.8,0.8)"
         style="fill-rule:evenodd;stroke:#000000;stroke-width:1pt"
         d="m 5.77,0 -8.65,5 0,-10 8.65,5 z"
         id="path3087" />
    </marker>
    <marker
       style="overflow:visible"
       id="marker3089"
       refX="0"
       refY="0"
       orient="auto"
       inkscape:stockid="TriangleOutL">
      <path
         transform="scale(0.8,0.8)"
         style="fill-rule:evenodd;stroke:#000000;stroke-width:1pt"
         d="m 5.77,0 -8.65,5 0,-10 8.65,5 z"
         id="path3091"
         inkscape:connector-curvature="0" />
    </marker>
    <marker
       style="overflow:visible"
       id="marker3093"
       refX="0"
       refY="0"
       orient="auto"
       inkscape:stockid="TriangleOutL">
      <path
         transform="scale(0.8,0.8)"
         style="fill-rule:evenodd;stroke:#000000;stroke-width:1pt"
         d="m 5.77,0 -8.65,5 0,-10 8.65,5 z"
         id="path3095"
         inkscape:connector-curvature="0" />
    </marker>
    <marker
       style="overflow:visible"
       id="marker3097"
       refX="0"
       refY="0"
       orient="auto"
       inkscape:stockid="TriangleOutL">
      <path
         inkscape:connector-curvature="0"
         transform="scale(0.8,0.8)"
         style="fill-rule:evenodd;stroke:#000000;stroke-width:1pt"
         d="m 5.77,0 -8.65,5 0,-10 8.65,5 z"
         id="path3099" />
    </marker>
    <marker
       style="overflow:visible"
       id="marker3101"
       refX="0"
       refY="0"
       orient="auto"
       inkscape:stockid="TriangleOutL">
      <path
         transform="scale(0.8,0.8)"
         style="fill-rule:evenodd;stroke:#000000;stroke-width:1pt"
         d="m 5.77,0 -8.65,5 0,-10 8.65,5 z"
         id="path3103"
         inkscape:connector-curvature="0" />
    </marker>
    <marker
       style="overflow:visible"
       id="marker3105"
       refX="0"
       refY="0"
       orient="auto"
       inkscape:stockid="TriangleOutL">
      <path
         inkscape:connector-curvature="0"
         transform="scale(0.8,0.8)"
         style="fill-rule:evenodd;stroke:#000000;stroke-width:1pt"
         d="m 5.77,0 -8.65,5 0,-10 8.65,5 z"
         id="path3107" />
    </marker>
    <marker
       style="overflow:visible"
       id="marker3109"
       refX="0"
       refY="0"
       orient="auto"
       inkscape:stockid="TriangleOutL">
      <path
         inkscape:connector-curvature="0"
         transform="scale(0.8,0.8)"
         style="fill-rule:evenodd;stroke:#000000;stroke-width:1pt"
         d="m 5.77,0 -8.65,5 0,-10 8.65,5 z"
         id="path3111" />
    </marker>
    <marker
       inkscape:stockid="TriangleOutLO"
       orient="auto"
       refY="0.0"
       refX="0.0"
       id="TriangleOutLO"
       style="overflow:visible">
      <path
         id="path4513"
         d="M 5.77,0.0 L -2.88,5.0 L -2.88,-5.0 L 5.77,0.0 z "
         style="stroke:#ff0000;stroke-width:1.0pt;fill:#ff0000;fill-rule:evenodd"
         transform="scale(0.8)" />
    </marker>
    <marker
       inkscape:stockid="TriangleOutL-52"
       orient="auto"
       refY="0"
       refX="0"
       id="TriangleOutL-52"
       style="overflow:visible">
      <path
         inkscape:connector-curvature="0"
         id="path4864"
         d="m 5.77,0 -8.65,5 0,-10 8.65,5 z"
         style="stroke:#ff0000;stroke-width:1pt;fill:#ff0000;fill-rule:evenodd"
         transform="scale(0.8,0.8)" />
    </marker>
    <marker
       inkscape:stockid="TriangleOutL-52X"
       orient="auto"
       refY="0"
       refX="0"
       id="TriangleOutL-52X"
       style="overflow:visible">
      <path
         inkscape:connector-curvature="0"
         id="path4013"
         d="m 5.77,0 -8.65,5 0,-10 8.65,5 z"
         style="fill-rule:evenodd;stroke:#000000;stroke-width:1pt;fill:#000000"
         transform="scale(0.8,0.8)" />
    </marker>
    <marker
       inkscape:stockid="TriangleOutLO7"
       orient="auto"
       refY="0.0"
       refX="0.0"
       id="TriangleOutLO7"
       style="overflow:visible">
      <path
         id="path4016"
         d="M 5.77,0.0 L -2.88,5.0 L -2.88,-5.0 L 5.77,0.0 z "
         style="fill-rule:evenodd;stroke:#000000;stroke-width:1.0pt;fill:#000000"
         transform="scale(0.8)" />
    </marker>
    <marker
       inkscape:stockid="TriangleOutLOy"
       orient="auto"
       refY="0.0"
       refX="0.0"
       id="TriangleOutLOy"
       style="overflow:visible">
      <path
         id="path4019"
         d="M 5.77,0.0 L -2.88,5.0 L -2.88,-5.0 L 5.77,0.0 z "
         style="fill-rule:evenodd;stroke:#000000;stroke-width:1.0pt;fill:#000000"
         transform="scale(0.8)" />
    </marker>
    <marker
       inkscape:stockid="TriangleOutL-52R"
       orient="auto"
       refY="0"
       refX="0"
       id="TriangleOutL-52R"
       style="overflow:visible">
      <path
         inkscape:connector-curvature="0"
         id="path4022"
         d="m 5.77,0 -8.65,5 0,-10 8.65,5 z"
         style="fill-rule:evenodd;stroke:#000000;stroke-width:1pt;fill:#000000"
         transform="scale(0.8,0.8)" />
    </marker>
    <marker
       inkscape:stockid="TriangleOutL-52Rw"
       orient="auto"
       refY="0"
       refX="0"
       id="TriangleOutL-52Rw"
       style="overflow:visible">
      <path
         inkscape:connector-curvature="0"
         id="path5661"
         d="m 5.77,0 -8.65,5 0,-10 8.65,5 z"
         style="stroke:#0000ff;stroke-width:1pt;fill:#0000ff;fill-rule:evenodd"
         transform="scale(0.8,0.8)" />
    </marker>
  </defs>
  <metadata
     id="metadata7">
    <rdf:RDF>
      <cc:Work
         rdf:about="">
        <dc:format>image/svg+xml</dc:format>
        <dc:type
           rdf:resource="http://purl.org/dc/dcmitype/StillImage" />
        <dc:title></dc:title>
      </cc:Work>
    </rdf:RDF>
  </metadata>
  <g
     id="layer1"
     inkscape:groupmode="layer"
     inkscape:label="レイヤー 1">
    <flowRoot
       style="font-size:40px;font-style:normal;font-variant:normal;font-weight:normal;font-stretch:normal;text-align:start;line-height:125%;letter-spacing:0px;word-spacing:0px;writing-mode:lr-tb;text-anchor:start;fill:#000000;fill-opacity:1;stroke:none;font-family:TeX Gyre Schola;-inkscape-font-specification:TeX Gyre Schola"
       id="flowRoot3759"
       xml:space="preserve"><flowRegion
         id="flowRegion3761"><rect
           y="374.36218"
           x="166"
           height="88"
           width="170"
           id="rect3763" /></flowRegion><flowPara
         id="flowPara3765" /></flowRoot>    <path
       style="fill:none;stroke:#000000;stroke-width:3;stroke-linecap:butt;stroke-linejoin:miter;stroke-miterlimit:4;stroke-opacity:1;stroke-dasharray:none;marker-end:url(#TriangleOutL)"
       d="m 395.81488,404.36218 c 122.22797,0 122.22797,0 122.22797,0"
       id="path4094"
       inkscape:connector-curvature="0" />
    <rect
       style="fill:none;stroke:#000000;stroke-width:3;stroke-linecap:butt;stroke-miterlimit:4;stroke-opacity:1;stroke-dasharray:none;stroke-dashoffset:0"
       id="rect3252"
       width="251.25302"
       height="144.25302"
       x="534.87347"
       y="328.23569" />
    <g
       id="content"
       transform="matrix(6.030303,0,0,-6.030303,-737.5455,4685.3939)"
       xml:space="preserve"
       stroke-miterlimit="10.433"
       font-style="normal"
       font-variant="normal"
       font-weight="normal"
       font-stretch="normal"
       font-size-adjust="none"
       letter-spacing="normal"
       word-spacing="normal"
       ns0:text="$P(s)$"
       ns0:preamble=""
       style="font-style:normal;font-variant:normal;font-weight:normal;font-stretch:normal;letter-spacing:normal;word-spacing:normal;text-anchor:start;fill:none;stroke:#000000;stroke-linecap:butt;stroke-linejoin:miter;stroke-miterlimit:10.43299961;stroke-opacity:1;stroke-dasharray:none;stroke-dashoffset:0"><path
         d="m 226.45,710.26 0.04,0.26 0.67,2.7 c 0.09,0.35 0.11,0.38 0.54,0.38 h 0.95 c 0.83,0 1.36,-0.27 1.36,-0.95 0,-0.39 -0.2,-1.24 -0.59,-1.6 -0.5,-0.45 -1.09,-0.53 -1.53,-0.53 h -1.4 l -0.04,-0.26 h 1.69 c 1.41,0 2.79,1.04 2.79,2.15 0,0.76 -0.65,1.5 -1.96,1.5 h -3.22 c -0.19,0 -0.3,0 -0.3,-0.19 0,-0.12 0.09,-0.12 0.29,-0.12 0.13,0 0.31,-0.01 0.43,-0.02 0.16,-0.02 0.22,-0.05 0.22,-0.16 0,-0.04 -0.01,-0.07 -0.04,-0.19 l -1.34,-5.33 c -0.1,-0.39 -0.11,-0.47 -0.9,-0.47 -0.17,0 -0.28,0 -0.28,-0.19 0,-0.12 0.12,-0.12 0.15,-0.12 0.28,0 0.98,0.04 1.26,0.04 0.21,0 0.43,-0.01 0.64,-0.01 0.22,0 0.44,-0.03 0.65,-0.03 0.07,0 0.2,0 0.2,0.2 0,0.11 -0.09,0.11 -0.28,0.11 -0.37,0 -0.65,0 -0.65,0.18 0,0.06 0.02,0.11 0.03,0.17 z"
         id="path3291"
         inkscape:connector-curvature="0"
         style="fill:#000000;stroke-width:0" /><path
         d="m 234.51,704.74 -0.01,0.01 0,0 0,0 0,0.01 0,0 0,0 0,0.01 0,0 0,0 0,0.01 -0.01,0 0,0.01 0,0 -0.01,0.01 0,0 -0.01,0.01 0,0.01 -0.01,0 0,0.01 0,0 -0.01,0.01 0,0 0,0 -0.01,0.01 0,0 -0.01,0.01 0,0 -0.01,0.01 0,0 -0.01,0.01 0,0 -0.01,0.01 0,0.01 -0.01,0 0,0.01 -0.01,0.01 -0.01,0 0,0.01 -0.01,0.01 -0.01,0 -0.01,0.01 0,0.01 c -1.25,1.25 -1.57,3.13 -1.57,4.65 0,1.73 0.38,3.46 1.61,4.7 0.13,0.12 0.13,0.14 0.13,0.17 0,0.07 -0.05,0.1 -0.1,0.1 -0.1,0 -1,-0.68 -1.59,-1.94 -0.5,-1.09 -0.62,-2.2 -0.62,-3.03 0,-0.78 0.11,-1.98 0.65,-3.1 0.6,-1.22 1.46,-1.87 1.56,-1.87 0.05,0 0.1,0.03 0.1,0.1 z"
         id="path3293"
         inkscape:connector-curvature="0"
         style="fill:#000000;stroke-width:0" /><path
         d="m 238.98,710.84 -0.03,0 -0.03,0 -0.02,-0.01 -0.02,0 -0.03,-0.01 -0.02,-0.01 -0.02,0 -0.03,-0.01 -0.02,-0.01 -0.02,-0.01 -0.02,-0.02 -0.02,-0.01 -0.02,-0.01 -0.01,-0.02 -0.02,-0.01 -0.02,-0.02 -0.01,-0.01 -0.02,-0.02 -0.01,-0.01 -0.01,-0.02 -0.02,-0.02 -0.01,-0.02 -0.01,-0.02 -0.01,-0.02 0,-0.02 -0.01,-0.02 -0.01,-0.02 0,-0.02 -0.01,-0.02 0,-0.02 0,-0.02 0,-0.02 c 0,-0.14 0.09,-0.29 0.31,-0.29 0.22,0 0.45,0.17 0.45,0.56 0,0.45 -0.42,0.86 -1.18,0.86 -1.31,0 -1.68,-1.02 -1.68,-1.45 0,-0.78 0.74,-0.93 1.02,-0.99 0.52,-0.1 1.04,-0.21 1.04,-0.75 0,-0.26 -0.23,-1.1 -1.42,-1.1 -0.14,0 -0.91,0 -1.14,0.53 0.38,-0.05 0.63,0.25 0.63,0.53 0,0.23 -0.16,0.35 -0.37,0.35 -0.26,0 -0.56,-0.21 -0.56,-0.66 0,-0.57 0.57,-0.96 1.43,-0.96 1.61,0 2,1.2 2,1.64 0,0.36 -0.19,0.61 -0.31,0.73 -0.27,0.28 -0.56,0.33 -1,0.42 -0.36,0.08 -0.75,0.15 -0.75,0.59 0,0.29 0.24,0.9 1.11,0.9 0.25,0 0.75,-0.07 0.9,-0.46 z"
         id="path3295"
         inkscape:connector-curvature="0"
         style="fill:#000000;stroke-width:0" /><path
         d="m 242.63,709.61 0,0.07 0,0.08 0,0.08 0,0.08 -0.01,0.17 -0.01,0.17 -0.02,0.18 -0.02,0.19 -0.03,0.2 -0.03,0.2 -0.04,0.2 -0.05,0.21 -0.05,0.21 -0.06,0.21 -0.07,0.21 -0.08,0.21 -0.04,0.11 -0.05,0.11 -0.04,0.1 -0.05,0.11 c -0.6,1.22 -1.46,1.87 -1.56,1.87 -0.06,0 -0.1,-0.04 -0.1,-0.1 0,-0.03 0,-0.05 0.19,-0.23 0.98,-0.99 1.54,-2.57 1.54,-4.64 0,-1.7 -0.36,-3.45 -1.6,-4.7 -0.13,-0.12 -0.13,-0.14 -0.13,-0.17 0,-0.06 0.04,-0.1 0.1,-0.1 0.1,0 1,0.68 1.58,1.94 0.51,1.09 0.63,2.19 0.63,3.03 z"
         id="path3297"
         inkscape:connector-curvature="0"
         style="fill:#000000;stroke-width:0" /></g>    <path
       inkscape:connector-curvature="0"
       id="path3328"
       d="m 786.69709,404.36218 c 287.55251,0 287.55251,0 287.55251,0"
       style="fill:none;stroke:#000000;stroke-width:3;stroke-linecap:butt;stroke-linejoin:miter;stroke-miterlimit:4;stroke-opacity:1;stroke-dasharray:none;marker-end:url(#TriangleOutL)" />
    <g
       style="font-style:normal;font-variant:normal;font-weight:normal;font-stretch:normal;letter-spacing:normal;word-spacing:normal;text-anchor:start;fill:none;stroke:#000000;stroke-linecap:butt;stroke-linejoin:miter;stroke-miterlimit:10.43299961;stroke-opacity:1;stroke-dasharray:none;stroke-dashoffset:0"
       ns0:preamble=""
       ns0:text="$Y(s)$"
       word-spacing="normal"
       letter-spacing="normal"
       font-size-adjust="none"
       font-stretch="normal"
       font-weight="normal"
       font-variant="normal"
       font-style="normal"
       stroke-miterlimit="10.433"
       xml:space="preserve"
       transform="matrix(4.8766585,0,0,-4.8766585,-103.94939,3813.6795)"
       id="g3372"><path
         id="path3374"
         d="m 229.37,712.78 0.14,0.14 c 0.3,0.29 0.63,0.63 1.3,0.68 0.11,0.01 0.2,0.01 0.2,0.19 0,0.08 -0.05,0.12 -0.13,0.12 -0.26,0 -0.54,-0.03 -0.81,-0.03 -0.33,0 -0.68,0.03 -1,0.03 -0.06,0 -0.19,0 -0.19,-0.19 0,-0.11 0.1,-0.12 0.15,-0.12 0.07,0 0.36,-0.02 0.36,-0.23 0,-0.16 -0.23,-0.42 -0.27,-0.47 l -2.3,-2.66 -1.1,2.96 c -0.06,0.13 -0.06,0.15 -0.06,0.16 0,0.24 0.49,0.24 0.59,0.24 0.14,0 0.24,0 0.24,0.2 0,0.11 -0.12,0.11 -0.15,0.11 -0.28,0 -0.98,-0.03 -1.26,-0.03 -0.24,0 -0.86,0.03 -1.11,0.03 -0.06,0 -0.19,0 -0.19,-0.2 0,-0.11 0.1,-0.11 0.23,-0.11 0.6,0 0.64,-0.09 0.73,-0.34 l 1.22,-3.26 c 0.01,-0.03 0.04,-0.14 0.04,-0.17 0,-0.03 -0.4,-1.63 -0.45,-1.81 -0.13,-0.55 -0.14,-0.58 -0.93,-0.59 -0.19,0 -0.27,0 -0.27,-0.2 0,-0.11 0.12,-0.11 0.14,-0.11 0.27,0 0.97,0.04 1.25,0.04 0.28,0 1,-0.04 1.27,-0.04 0.07,0 0.19,0 0.19,0.2 0,0.11 -0.09,0.11 -0.28,0.11 -0.02,0 -0.21,0 -0.37,0.02 -0.21,0.02 -0.27,0.04 -0.27,0.16 0,0.07 0.09,0.42 0.14,0.63 l 0.34,1.4 c 0.06,0.19 0.06,0.22 0.14,0.31 z"
         inkscape:connector-curvature="0"
         style="fill:#000000;stroke-width:0" /><path
         id="path3376"
         d="m 234.72,704.74 0,0.01 0,0 0,0 0,0.01 0,0 0,0 0,0.01 0,0 0,0 -0.01,0.01 0,0 0,0.01 0,0 -0.01,0.01 0,0 -0.01,0.01 0,0.01 -0.01,0 0,0.01 0,0 -0.01,0.01 0,0 -0.01,0 0,0.01 0,0 -0.01,0.01 0,0 -0.01,0.01 0,0 -0.01,0.01 0,0 -0.01,0.01 0,0.01 -0.01,0 -0.01,0.01 0,0.01 -0.01,0 -0.01,0.01 0,0.01 -0.01,0 -0.01,0.01 -0.01,0.01 c -1.24,1.25 -1.56,3.13 -1.56,4.65 0,1.73 0.38,3.46 1.6,4.7 0.13,0.12 0.13,0.14 0.13,0.17 0,0.07 -0.04,0.1 -0.1,0.1 -0.1,0 -0.99,-0.68 -1.58,-1.94 -0.51,-1.09 -0.63,-2.2 -0.63,-3.03 0,-0.78 0.11,-1.98 0.66,-3.1 0.6,-1.22 1.45,-1.87 1.55,-1.87 0.06,0 0.1,0.03 0.1,0.1 z"
         inkscape:connector-curvature="0"
         style="fill:#000000;stroke-width:0" /><path
         id="path3378"
         d="m 239.19,710.84 -0.02,0 -0.03,0 -0.02,-0.01 -0.03,0 -0.02,-0.01 -0.02,-0.01 -0.03,0 -0.02,-0.01 -0.02,-0.01 -0.02,-0.01 -0.02,-0.02 -0.02,-0.01 -0.02,-0.01 -0.02,-0.02 -0.01,-0.01 -0.02,-0.02 -0.01,-0.01 -0.02,-0.02 -0.01,-0.01 -0.02,-0.02 -0.01,-0.02 -0.01,-0.02 -0.01,-0.02 -0.01,-0.02 -0.01,-0.02 0,-0.02 -0.01,-0.02 0,-0.02 -0.01,-0.02 0,-0.02 0,-0.02 0,-0.02 c 0,-0.14 0.09,-0.29 0.3,-0.29 0.22,0 0.46,0.17 0.46,0.56 0,0.45 -0.43,0.86 -1.18,0.86 -1.31,0 -1.68,-1.02 -1.68,-1.45 0,-0.78 0.73,-0.93 1.02,-0.99 0.52,-0.1 1.04,-0.21 1.04,-0.75 0,-0.26 -0.23,-1.1 -1.43,-1.1 -0.13,0 -0.9,0 -1.13,0.53 0.38,-0.05 0.63,0.25 0.63,0.53 0,0.23 -0.16,0.35 -0.37,0.35 -0.26,0 -0.56,-0.21 -0.56,-0.66 0,-0.57 0.57,-0.96 1.42,-0.96 1.62,0 2,1.2 2,1.64 0,0.36 -0.19,0.61 -0.31,0.73 -0.26,0.28 -0.55,0.33 -0.99,0.42 -0.36,0.08 -0.76,0.15 -0.76,0.59 0,0.29 0.24,0.9 1.12,0.9 0.25,0 0.74,-0.07 0.89,-0.46 z"
         inkscape:connector-curvature="0"
         style="fill:#000000;stroke-width:0" /><path
         id="path3380"
         d="m 242.85,709.61 0,0.07 0,0.08 0,0.08 -0.01,0.08 0,0.17 -0.02,0.17 -0.01,0.18 -0.02,0.19 -0.03,0.2 -0.03,0.2 -0.04,0.2 -0.05,0.21 -0.05,0.21 -0.06,0.21 -0.07,0.21 -0.08,0.21 -0.04,0.11 -0.05,0.11 -0.05,0.1 -0.05,0.11 c -0.59,1.22 -1.45,1.87 -1.55,1.87 -0.06,0 -0.1,-0.04 -0.1,-0.1 0,-0.03 0,-0.05 0.19,-0.23 0.98,-0.99 1.54,-2.57 1.54,-4.64 0,-1.7 -0.37,-3.45 -1.6,-4.7 -0.13,-0.12 -0.13,-0.14 -0.13,-0.17 0,-0.06 0.04,-0.1 0.1,-0.1 0.1,0 0.99,0.68 1.58,1.94 0.51,1.09 0.63,2.19 0.63,3.03 z"
         inkscape:connector-curvature="0"
         style="fill:#000000;stroke-width:0" /></g>    <g
       id="g3464"
       transform="matrix(4.8766585,0,0,-4.8766585,-1240.1768,3821.4368)"
       xml:space="preserve"
       stroke-miterlimit="10.433"
       font-style="normal"
       font-variant="normal"
       font-weight="normal"
       font-stretch="normal"
       font-size-adjust="none"
       letter-spacing="normal"
       word-spacing="normal"
       ns0:text="$R(s)$"
       ns0:preamble=""
       style="font-style:normal;font-variant:normal;font-weight:normal;font-stretch:normal;letter-spacing:normal;word-spacing:normal;text-anchor:start;fill:none;stroke:#000000;stroke-linecap:butt;stroke-linejoin:miter;stroke-miterlimit:10.43299961;stroke-opacity:1;stroke-dasharray:none;stroke-dashoffset:0"><path
         style="fill:#000000;stroke-width:0"
         inkscape:connector-curvature="0"
         d="m 228.6,710.5 0.09,0.02 0.1,0.03 0.09,0.03 0.1,0.03 0.09,0.03 0.1,0.03 0.1,0.04 0.09,0.04 0.1,0.05 0.09,0.04 0.09,0.05 0.09,0.05 0.09,0.05 0.08,0.06 0.09,0.06 0.08,0.06 0.07,0.06 0.08,0.06 0.07,0.07 0.07,0.07 0.06,0.07 0.06,0.07 0.05,0.08 0.05,0.08 0.05,0.08 0.04,0.08 0.03,0.08 0.03,0.09 0.02,0.09 0.02,0.09 0.01,0.09 0,0.09 c 0,0.85 -0.89,1.49 -2.19,1.49 h -2.84 c -0.2,0 -0.29,0 -0.29,-0.2 0,-0.11 0.09,-0.11 0.28,-0.11 0.02,0 0.21,0 0.38,-0.02 0.18,-0.02 0.27,-0.03 0.27,-0.16 0,-0.04 -0.01,-0.07 -0.04,-0.19 l -1.34,-5.33 c -0.1,-0.39 -0.11,-0.47 -0.9,-0.47 -0.18,0 -0.27,0 -0.27,-0.2 0,-0.11 0.12,-0.11 0.14,-0.11 0.28,0 0.97,0.04 1.25,0.04 0.28,0 0.99,-0.04 1.27,-0.04 0.08,0 0.2,0 0.2,0.2 0,0.11 -0.09,0.11 -0.28,0.11 -0.37,0 -0.65,0 -0.65,0.18 0,0.06 0.02,0.11 0.03,0.17 l 0.66,2.63 h 1.18 l -0.01,0.22 h -1.11 l 0.64,2.59 c 0.06,0.24 0.09,0.34 0.28,0.37 0.09,0.01 0.41,0.01 0.61,0.01 0.71,0 1.81,0 1.81,-0.98 0,-0.34 -0.16,-1.03 -0.55,-1.41 -0.26,-0.26 -0.78,-0.58 -1.68,-0.58 l 0.01,-0.22 c 0.91,0 1.09,-0.55 1.09,-0.9 0,-0.15 -0.08,-0.46 -0.14,-0.69 -0.07,-0.27 -0.16,-0.64 -0.16,-0.84 0,-1.07 1.19,-1.07 1.32,-1.07 0.85,0 1.19,1 1.19,1.14 0,0.12 -0.11,0.12 -0.12,0.12 -0.08,0 -0.11,-0.07 -0.12,-0.14 -0.25,-0.74 -0.68,-0.91 -0.91,-0.91 -0.33,0 -0.4,0.22 -0.4,0.61 0,0.31 0.06,0.82 0.1,1.13 0.02,0.14 0.04,0.33 0.04,0.47 0,0.76 -0.67,1.07 -0.93,1.17 z"
         id="path3466" /><path
         style="fill:#000000;stroke-width:0"
         inkscape:connector-curvature="0"
         d="m 234.37,704.74 0,0.01 0,0 0,0 0,0.01 0,0 -0.01,0 0,0.01 0,0 0,0 0,0.01 0,0 -0.01,0.01 0,0 0,0.01 -0.01,0 0,0.01 -0.01,0.01 0,0 -0.01,0.01 0,0 0,0.01 -0.01,0 0,0 -0.01,0.01 0,0 0,0.01 -0.01,0 0,0.01 -0.01,0 0,0.01 -0.01,0 0,0.01 -0.01,0.01 -0.01,0 0,0.01 -0.01,0.01 -0.01,0 0,0.01 -0.01,0.01 -0.01,0 0,0.01 -0.01,0.01 c -1.25,1.25 -1.56,3.13 -1.56,4.65 0,1.73 0.37,3.46 1.6,4.7 0.13,0.12 0.13,0.14 0.13,0.17 0,0.07 -0.04,0.1 -0.1,0.1 -0.1,0 -1,-0.68 -1.58,-1.94 -0.51,-1.09 -0.63,-2.2 -0.63,-3.03 0,-0.78 0.11,-1.98 0.66,-3.1 0.59,-1.22 1.45,-1.87 1.55,-1.87 0.06,0 0.1,0.03 0.1,0.1 z"
         id="path3468" /><path
         style="fill:#000000;stroke-width:0"
         inkscape:connector-curvature="0"
         d="m 238.84,710.84 -0.03,0 -0.02,0 -0.03,-0.01 -0.02,0 -0.03,-0.01 -0.02,-0.01 -0.02,0 -0.02,-0.01 -0.03,-0.01 -0.02,-0.01 -0.02,-0.02 -0.02,-0.01 -0.01,-0.01 -0.02,-0.02 -0.02,-0.01 -0.01,-0.02 -0.02,-0.01 -0.01,-0.02 -0.02,-0.01 -0.01,-0.02 -0.01,-0.02 -0.01,-0.02 -0.01,-0.02 -0.01,-0.02 -0.01,-0.02 -0.01,-0.02 0,-0.02 -0.01,-0.02 0,-0.02 -0.01,-0.02 0,-0.02 0,-0.02 c 0,-0.14 0.09,-0.29 0.31,-0.29 0.22,0 0.46,0.17 0.46,0.56 0,0.45 -0.43,0.86 -1.19,0.86 -1.31,0 -1.68,-1.02 -1.68,-1.45 0,-0.78 0.74,-0.93 1.03,-0.99 0.51,-0.1 1.03,-0.21 1.03,-0.75 0,-0.26 -0.23,-1.1 -1.42,-1.1 -0.14,0 -0.91,0 -1.14,0.53 0.38,-0.05 0.63,0.25 0.63,0.53 0,0.23 -0.16,0.35 -0.37,0.35 -0.26,0 -0.56,-0.21 -0.56,-0.66 0,-0.57 0.57,-0.96 1.43,-0.96 1.61,0 2,1.2 2,1.64 0,0.36 -0.19,0.61 -0.31,0.73 -0.27,0.28 -0.56,0.33 -1,0.42 -0.35,0.08 -0.75,0.15 -0.75,0.59 0,0.29 0.24,0.9 1.11,0.9 0.25,0 0.75,-0.07 0.9,-0.46 z"
         id="path3470" /><path
         style="fill:#000000;stroke-width:0"
         inkscape:connector-curvature="0"
         d="m 242.49,709.61 0,0.07 0,0.08 0,0.08 0,0.08 -0.01,0.17 -0.01,0.17 -0.02,0.18 -0.02,0.19 -0.03,0.2 -0.03,0.2 -0.04,0.2 -0.05,0.21 -0.05,0.21 -0.06,0.21 -0.07,0.21 -0.08,0.21 -0.04,0.11 -0.05,0.11 -0.04,0.1 -0.05,0.11 c -0.6,1.22 -1.46,1.87 -1.55,1.87 -0.06,0 -0.11,-0.04 -0.11,-0.1 0,-0.03 0,-0.05 0.19,-0.23 0.98,-0.99 1.55,-2.57 1.55,-4.64 0,-1.7 -0.37,-3.45 -1.61,-4.7 -0.13,-0.12 -0.13,-0.14 -0.13,-0.17 0,-0.06 0.05,-0.1 0.11,-0.1 0.09,0 0.99,0.68 1.58,1.94 0.5,1.09 0.62,2.19 0.62,3.03 z"
         id="path3472" /></g>    <g
       style="font-style:normal;font-variant:normal;font-weight:normal;font-stretch:normal;letter-spacing:normal;word-spacing:normal;text-anchor:start;fill:none;stroke:#000000;stroke-linecap:butt;stroke-linejoin:miter;stroke-miterlimit:10.43299961;stroke-opacity:1;stroke-dasharray:none;stroke-dashoffset:0"
       id="g4460"
       transform="matrix(3,0,0,-3,-835.9655,2422.9289)"
       xml:space="preserve"
       stroke-miterlimit="10.433"
       font-style="normal"
       font-variant="normal"
       font-weight="normal"
       font-stretch="normal"
       font-size-adjust="none"
       letter-spacing="normal"
       word-spacing="normal"
       ns0:text="Reference"
       ns0:preamble=""><path
         style="fill:#000000;stroke-width:0"
         inkscape:connector-curvature="0"
         d="m 227.76,710.5 0.09,0.03 0.09,0.02 0.09,0.03 0.08,0.03 0.09,0.03 0.08,0.03 0.08,0.04 0.08,0.04 0.08,0.04 0.07,0.04 0.07,0.04 0.07,0.05 0.07,0.04 0.07,0.05 0.06,0.05 0.06,0.05 0.06,0.05 0.05,0.06 0.06,0.05 0.04,0.06 0.05,0.06 0.04,0.06 0.04,0.06 0.03,0.07 0.04,0.06 0.02,0.07 0.03,0.06 0.02,0.07 0.01,0.07 0.01,0.07 0.01,0.07 0,0.07 c 0,0.96 -1.13,1.79 -2.6,1.79 h -3.12 v -0.31 h 0.24 c 0.77,0 0.78,-0.11 0.78,-0.46 v -5.24 c 0,-0.36 -0.01,-0.47 -0.78,-0.47 h -0.24 v -0.31 c 0.36,0.04 1.07,0.04 1.45,0.04 0.39,0 1.1,0 1.45,-0.04 v 0.31 h -0.23 c -0.77,0 -0.79,0.11 -0.79,0.47 v 2.51 0.22 2.58 c 0,0.22 0,0.34 0.22,0.37 0.1,0.02 0.39,0.02 0.59,0.02 0.89,0 2.01,-0.04 2.01,-1.48 0,-0.68 -0.24,-1.49 -1.72,-1.49 h -1.1 v -0.22 h 1.14 c 0.16,0 0.58,0 0.93,-0.33 0.38,-0.36 0.38,-0.67 0.38,-1.34 0,-0.64 0,-1.04 0.41,-1.42 0.4,-0.35 0.95,-0.41 1.25,-0.41 0.78,0 0.94,0.81 0.94,1.09 0,0.06 0,0.17 -0.12,0.17 -0.11,0 -0.11,-0.09 -0.12,-0.16 -0.06,-0.71 -0.41,-0.89 -0.66,-0.89 -0.49,0 -0.57,0.51 -0.71,1.43 l -0.13,0.8 c -0.18,0.64 -0.66,0.96 -1.21,1.15 z"
         id="path4462" /><path
         style="fill:#000000;stroke-width:0"
         inkscape:connector-curvature="0"
         d="m 231.87,709.42 0.01,0.21 c 0.06,1.48 0.89,1.73 1.23,1.73 1.03,0 1.13,-1.34 1.13,-1.73 h -2.36 l -0.01,-0.21 h 2.78 c 0.22,0 0.24,0 0.24,0.21 0,0.98 -0.53,1.95 -1.78,1.95 -1.15,0 -2.07,-1.03 -2.07,-2.27 0,-1.33 1.05,-2.29 2.19,-2.29 1.22,0 1.66,1.1 1.66,1.29 0,0.1 -0.07,0.12 -0.13,0.12 -0.08,0 -0.1,-0.06 -0.12,-0.14 -0.35,-1.03 -1.25,-1.03 -1.35,-1.03 -0.5,0 -0.89,0.3 -1.12,0.67 -0.3,0.48 -0.3,1.13 -0.3,1.49 z"
         id="path4464" /><path
         style="fill:#000000;stroke-width:0"
         inkscape:connector-curvature="0"
         d="m 236.93,711.41 v 1.15 c 0,0.87 0.48,1.35 0.92,1.35 0.03,0 0.18,0 0.33,-0.07 -0.12,-0.04 -0.3,-0.17 -0.3,-0.42 0,-0.22 0.16,-0.42 0.43,-0.42 0.29,0 0.43,0.2 0.43,0.43 0,0.37 -0.36,0.7 -0.89,0.7 -0.7,0 -1.54,-0.53 -1.54,-1.58 v -1.14 h -0.79 v -0.31 h 0.79 v -3.22 c 0,-0.45 -0.11,-0.45 -0.78,-0.45 v -0.31 c 0.39,0.02 0.86,0.04 1.13,0.04 0.4,0 0.87,0 1.27,-0.04 v 0.31 h -0.21 c -0.74,0 -0.76,0.11 -0.76,0.47 v 3.2 h 1.14 v 0.31 z"
         id="path4466" /><path
         style="fill:#000000;stroke-width:0"
         inkscape:connector-curvature="0"
         d="m 239.34,709.42 0.01,0.21 c 0.06,1.48 0.9,1.73 1.24,1.73 1.02,0 1.12,-1.34 1.12,-1.73 h -2.36 l -0.01,-0.21 h 2.78 c 0.22,0 0.25,0 0.25,0.21 0,0.98 -0.54,1.95 -1.78,1.95 -1.16,0 -2.07,-1.03 -2.07,-2.27 0,-1.33 1.04,-2.29 2.19,-2.29 1.21,0 1.66,1.1 1.66,1.29 0,0.1 -0.08,0.12 -0.13,0.12 -0.09,0 -0.11,-0.06 -0.13,-0.14 -0.35,-1.03 -1.25,-1.03 -1.35,-1.03 -0.49,0 -0.89,0.3 -1.12,0.67 -0.3,0.48 -0.3,1.13 -0.3,1.49 z"
         id="path4468" /><path
         style="fill:#000000;stroke-width:0"
         inkscape:connector-curvature="0"
         d="m 244.33,710.42 v 1.1 l -1.39,-0.11 v -0.31 c 0.7,0 0.78,-0.07 0.78,-0.56 v -2.66 c 0,-0.45 -0.11,-0.45 -0.78,-0.45 v -0.31 c 0.39,0.02 0.86,0.04 1.14,0.04 0.4,0 0.86,0 1.26,-0.04 v 0.31 h -0.21 c -0.73,0 -0.75,0.11 -0.75,0.47 v 1.53 c 0,0.98 0.41,1.87 1.17,1.87 0.07,0 0.09,0 0.11,-0.01 -0.03,-0.01 -0.23,-0.13 -0.23,-0.39 0,-0.28 0.21,-0.43 0.43,-0.43 0.18,0 0.43,0.12 0.43,0.44 0,0.32 -0.31,0.61 -0.74,0.61 -0.73,0 -1.08,-0.67 -1.22,-1.1 z"
         id="path4470" /><path
         style="fill:#000000;stroke-width:0"
         inkscape:connector-curvature="0"
         d="m 247.67,709.42 0.01,0.21 c 0.06,1.48 0.9,1.73 1.23,1.73 1.03,0 1.13,-1.34 1.13,-1.73 h -2.36 l -0.01,-0.21 h 2.78 c 0.22,0 0.25,0 0.25,0.21 0,0.98 -0.54,1.95 -1.79,1.95 -1.15,0 -2.06,-1.03 -2.06,-2.27 0,-1.33 1.04,-2.29 2.18,-2.29 1.22,0 1.67,1.1 1.67,1.29 0,0.1 -0.08,0.12 -0.13,0.12 -0.09,0 -0.11,-0.06 -0.13,-0.14 -0.35,-1.03 -1.25,-1.03 -1.35,-1.03 -0.49,0 -0.89,0.3 -1.12,0.67 -0.3,0.48 -0.3,1.13 -0.3,1.49 z"
         id="path4472" /><path
         style="fill:#000000;stroke-width:0"
         inkscape:connector-curvature="0"
         d="m 252.09,710.54 v -2.66 c 0,-0.45 -0.11,-0.45 -0.78,-0.45 v -0.31 c 0.35,0.02 0.86,0.04 1.13,0.04 0.26,0 0.77,-0.02 1.11,-0.04 v 0.31 c -0.67,0 -0.78,0 -0.78,0.45 v 1.83 c 0,1.03 0.71,1.59 1.35,1.59 0.62,0 0.73,-0.54 0.73,-1.1 v -2.32 c 0,-0.45 -0.11,-0.45 -0.77,-0.45 v -0.31 c 0.35,0.02 0.85,0.04 1.12,0.04 0.26,0 0.78,-0.02 1.12,-0.04 v 0.31 c -0.52,0 -0.77,0 -0.78,0.3 v 1.9 c 0,0.85 0,1.16 -0.31,1.52 -0.14,0.17 -0.47,0.37 -1.04,0.37 -0.73,0 -1.2,-0.43 -1.47,-1.05 v 1.05 l -1.41,-0.11 v -0.31 c 0.7,0 0.78,-0.07 0.78,-0.56 z"
         id="path4474" /><path
         style="fill:#000000;stroke-width:0"
         inkscape:connector-curvature="0"
         d="m 257.69,709.29 0,0.08 0.01,0.07 0,0.07 0,0.07 0.01,0.07 0,0.07 0.01,0.06 0.01,0.06 0.01,0.06 0.01,0.06 0.01,0.06 0.01,0.06 0.03,0.11 0.03,0.1 0.03,0.1 0.04,0.09 0.04,0.09 0.04,0.08 0.04,0.07 0.05,0.07 0.05,0.07 0.05,0.06 0.05,0.05 0.05,0.05 0.06,0.05 0.05,0.04 0.06,0.04 0.05,0.03 0.06,0.03 0.05,0.03 0.06,0.02 0.06,0.02 0.05,0.01 0.06,0.02 0.05,0.01 0.06,0 0.05,0.01 0.05,0 c 0.09,0 0.71,-0.01 1.06,-0.37 -0.41,-0.03 -0.47,-0.33 -0.47,-0.46 0,-0.26 0.18,-0.45 0.46,-0.45 0.26,0 0.46,0.16 0.46,0.46 0,0.68 -0.76,1.07 -1.52,1.07 -1.25,0 -2.16,-1.08 -2.16,-2.31 0,-1.27 0.98,-2.25 2.14,-2.25 1.33,0 1.65,1.19 1.65,1.29 0,0.1 -0.1,0.1 -0.13,0.1 -0.09,0 -0.11,-0.04 -0.13,-0.1 -0.29,-0.93 -0.94,-1.05 -1.3,-1.05 -0.53,0 -1.41,0.43 -1.41,2.03 z"
         id="path4476" /><path
         style="fill:#000000;stroke-width:0"
         inkscape:connector-curvature="0"
         d="m 262.06,709.42 0.01,0.21 c 0.06,1.48 0.9,1.73 1.23,1.73 1.03,0 1.13,-1.34 1.13,-1.73 h -2.36 l -0.01,-0.21 h 2.78 c 0.22,0 0.25,0 0.25,0.21 0,0.98 -0.54,1.95 -1.79,1.95 -1.15,0 -2.06,-1.03 -2.06,-2.27 0,-1.33 1.04,-2.29 2.18,-2.29 1.22,0 1.67,1.1 1.67,1.29 0,0.1 -0.08,0.12 -0.13,0.12 -0.09,0 -0.11,-0.06 -0.13,-0.14 -0.35,-1.03 -1.25,-1.03 -1.35,-1.03 -0.49,0 -0.89,0.3 -1.12,0.67 -0.3,0.48 -0.3,1.13 -0.3,1.49 z"
         id="path4478" /></g>    <g
       id="g4790"
       transform="matrix(3,0,0,-3,-51.485281,2430.3532)"
       xml:space="preserve"
       stroke-miterlimit="10.433"
       font-style="normal"
       font-variant="normal"
       font-weight="normal"
       font-stretch="normal"
       font-size-adjust="none"
       letter-spacing="normal"
       word-spacing="normal"
       ns0:text="Plant\n"
       ns0:preamble=""
       style="font-style:normal;font-variant:normal;font-weight:normal;font-stretch:normal;letter-spacing:normal;word-spacing:normal;text-anchor:start;fill:none;stroke:#000000;stroke-linecap:butt;stroke-linejoin:miter;stroke-miterlimit:10.43299961;stroke-opacity:1;stroke-dasharray:none;stroke-dashoffset:0"><path
         style="fill:#000000;stroke-width:0"
         inkscape:connector-curvature="0"
         d="m 225.69,710.26 -0.03,0.26 v 2.69 c 0,0.32 0.02,0.39 0.49,0.39 h 0.88 c 1.59,0 1.59,-1.05 1.59,-1.54 0,-0.47 0,-1.54 -1.59,-1.54 h -1.37 l 0.03,-0.26 h 1.68 c 1.2,0 2.27,0.81 2.27,1.8 0,0.98 -0.99,1.85 -2.35,1.85 h -3.51 v -0.31 h 0.24 c 0.77,0 0.78,-0.11 0.78,-0.46 v -5.24 c 0,-0.36 -0.01,-0.47 -0.78,-0.47 h -0.24 v -0.31 c 0.35,0.04 1.09,0.04 1.46,0.04 0.38,0 1.13,0 1.47,-0.04 v 0.31 h -0.23 c -0.77,0 -0.79,0.11 -0.79,0.47 z"
         id="path4792" /><path
         style="fill:#000000;stroke-width:0"
         inkscape:connector-curvature="0"
         d="m 231.97,714.02 -1.43,-0.11 v -0.31 c 0.7,0 0.78,-0.07 0.78,-0.55 v -5.17 c 0,-0.45 -0.11,-0.45 -0.78,-0.45 v -0.31 c 0.33,0.02 0.86,0.04 1.11,0.04 0.24,0 0.73,-0.02 1.1,-0.04 v 0.31 c -0.67,0 -0.78,0 -0.78,0.45 z"
         id="path4794" /><path
         style="fill:#000000;stroke-width:0"
         inkscape:connector-curvature="0"
         d="m 236.29,707.88 0.01,-0.04 0,-0.03 0.01,-0.04 0.01,-0.04 0.01,-0.04 0.01,-0.03 0.01,-0.04 0.02,-0.03 0.01,-0.04 0.02,-0.03 0.01,-0.04 0.02,-0.03 0.02,-0.03 0.02,-0.04 0.03,-0.03 0.02,-0.03 0.03,-0.02 0.02,-0.03 0.03,-0.03 0.03,-0.02 0.03,-0.02 0.03,-0.03 0.03,-0.02 0.04,-0.01 0.03,-0.02 0.04,-0.01 0.03,-0.02 0.04,-0.01 0.04,0 0.04,-0.01 0.05,0 0.04,0 c 0.21,0 0.81,0.13 0.81,0.94 v 0.56 h -0.24 v -0.56 c 0,-0.58 -0.25,-0.64 -0.36,-0.64 -0.33,0 -0.37,0.45 -0.37,0.5 v 1.99 c 0,0.41 0,0.8 -0.36,1.17 -0.39,0.39 -0.88,0.55 -1.36,0.55 -0.82,0 -1.5,-0.47 -1.5,-1.13 0,-0.29 0.2,-0.46 0.45,-0.46 0.28,0 0.46,0.19 0.46,0.45 0,0.12 -0.05,0.45 -0.51,0.46 0.27,0.35 0.76,0.46 1.08,0.46 0.49,0 1.05,-0.39 1.05,-1.27 v -0.37 -0.21 -0.99 c 0,-0.95 -0.71,-1.29 -1.16,-1.29 -0.49,0 -0.9,0.35 -0.9,0.85 0,0.54 0.42,1.37 2.06,1.43 h 0 v 0.21 c -0.5,-0.03 -1.2,-0.06 -1.83,-0.36 -0.74,-0.34 -0.99,-0.85 -0.99,-1.29 0,-0.81 0.96,-1.05 1.59,-1.05 0.66,0 1.11,0.39 1.3,0.86 z"
         id="path4796" /><path
         style="fill:#000000;stroke-width:0"
         inkscape:connector-curvature="0"
         d="m 239.06,710.54 v -2.66 c 0,-0.45 -0.11,-0.45 -0.78,-0.45 v -0.31 c 0.35,0.02 0.85,0.04 1.12,0.04 0.26,0 0.78,-0.02 1.12,-0.04 v 0.31 c -0.67,0 -0.78,0 -0.78,0.45 v 1.83 c 0,1.03 0.71,1.59 1.35,1.59 0.62,0 0.73,-0.54 0.73,-1.1 v -2.32 c 0,-0.45 -0.11,-0.45 -0.77,-0.45 v -0.31 c 0.34,0.02 0.85,0.04 1.12,0.04 0.26,0 0.78,-0.02 1.11,-0.04 v 0.31 c -0.51,0 -0.76,0 -0.77,0.3 v 1.9 c 0,0.85 0,1.16 -0.31,1.52 -0.14,0.17 -0.47,0.37 -1.05,0.37 -0.72,0 -1.19,-0.43 -1.47,-1.05 v 1.05 l -1.4,-0.11 v -0.31 c 0.7,0 0.78,-0.07 0.78,-0.56 z"
         id="path4798" /><path
         style="fill:#000000;stroke-width:0"
         inkscape:connector-curvature="0"
         d="m 244.94,711.1 h 1.42 v 0.31 h -1.42 v 1.82 h -0.25 c -0.01,-0.81 -0.31,-1.87 -1.28,-1.91 v -0.22 h 0.84 v -2.74 c 0,-1.22 0.93,-1.34 1.29,-1.34 0.7,0 0.98,0.7 0.98,1.34 v 0.56 h -0.25 v -0.54 c 0,-0.74 -0.3,-1.12 -0.67,-1.12 -0.66,0 -0.66,0.91 -0.66,1.08 z"
         id="path4800" /></g>    <g
       style="font-style:normal;font-variant:normal;font-weight:normal;font-stretch:normal;letter-spacing:normal;word-spacing:normal;text-anchor:start;fill:none;stroke:#000000;stroke-linecap:butt;stroke-linejoin:miter;stroke-miterlimit:10.43299961;stroke-opacity:1;stroke-dasharray:none;stroke-dashoffset:0"
       ns0:preamble=""
       ns0:text="Output"
       word-spacing="normal"
       letter-spacing="normal"
       font-size-adjust="none"
       font-stretch="normal"
       font-weight="normal"
       font-variant="normal"
       font-style="normal"
       stroke-miterlimit="10.433"
       xml:space="preserve"
       transform="matrix(3,0,0,-3,313.43355,2434.6569)"
       id="g4960"><path
         id="path4962"
         d="m 230.6,710.49 0,0.19 -0.01,0.19 -0.02,0.18 -0.03,0.18 -0.04,0.18 -0.05,0.17 -0.05,0.17 -0.06,0.17 -0.06,0.16 -0.08,0.15 -0.08,0.16 -0.09,0.14 -0.09,0.15 -0.1,0.13 -0.1,0.13 -0.11,0.13 -0.12,0.12 -0.12,0.11 -0.12,0.11 -0.13,0.1 -0.14,0.1 -0.14,0.08 -0.14,0.08 -0.15,0.07 -0.15,0.07 -0.15,0.06 -0.16,0.04 -0.16,0.04 -0.16,0.04 -0.16,0.02 -0.17,0.01 -0.17,0.01 v -0.25 c 0.87,0 2.29,-0.71 2.29,-3.25 0,-2.63 -1.36,-3.47 -2.28,-3.47 h 0 c -0.95,0 -2.29,0.88 -2.29,3.47 0,2.58 1.46,3.25 2.28,3.25 v 0.25 c -1.78,0 -3.3,-1.59 -3.3,-3.64 0,-2.03 1.53,-3.58 3.3,-3.58 1.81,0 3.31,1.58 3.31,3.58 z"
         inkscape:connector-curvature="0"
         style="fill:#000000;stroke-width:0" /><path
         id="path4964"
         d="m 235.07,707.91 v -0.89 l 1.43,0.1 v 0.31 c -0.69,0 -0.77,0.07 -0.77,0.56 v 3.53 l -1.47,-0.11 v -0.31 c 0.7,0 0.78,-0.07 0.78,-0.56 v -1.77 c 0,-0.86 -0.48,-1.54 -1.2,-1.54 -0.84,0 -0.88,0.47 -0.88,0.99 v 3.3 l -1.46,-0.11 v -0.31 c 0.77,0 0.77,-0.03 0.77,-0.92 v -1.49 c 0,-0.77 0,-1.67 1.52,-1.67 0.56,0 0.99,0.27 1.28,0.89 z"
         inkscape:connector-curvature="0"
         style="fill:#000000;stroke-width:0" /><path
         id="path4966"
         d="m 238.44,711.1 h 1.42 v 0.31 h -1.42 v 1.82 h -0.25 c -0.01,-0.81 -0.31,-1.87 -1.29,-1.91 v -0.22 h 0.85 v -2.74 c 0,-1.22 0.93,-1.34 1.28,-1.34 0.71,0 0.99,0.7 0.99,1.34 v 0.56 h -0.25 v -0.54 c 0,-0.74 -0.3,-1.12 -0.67,-1.12 -0.66,0 -0.66,0.91 -0.66,1.08 z"
         inkscape:connector-curvature="0"
         style="fill:#000000;stroke-width:0" /><path
         id="path4968"
         d="m 242.3,710.86 v 0.66 l -1.43,-0.11 v -0.31 c 0.71,0 0.78,-0.06 0.78,-0.5 v -4.65 c 0,-0.44 -0.11,-0.44 -0.78,-0.44 v -0.31 c 0.34,0.01 0.86,0.03 1.11,0.03 0.27,0 0.78,-0.02 1.13,-0.03 v 0.31 c -0.67,0 -0.78,0 -0.78,0.44 v 1.67 0.09 l 0.14,0.13 c -0.14,0.21 -0.14,0.22 -0.14,0.42 h 0 v 2.21 c 0.29,0.51 0.78,0.8 1.29,0.8 0.72,0 1.33,-0.88 1.33,-2 0,-1.2 -0.7,-2.04 -1.43,-2.04 -0.4,0 -0.78,0.2 -1.05,0.61 l -0.14,-0.13 c 0.05,-0.16 0.47,-0.69 1.22,-0.69 1.19,0 2.22,0.97 2.22,2.25 0,1.26 -0.96,2.25 -2.07,2.25 -0.78,0 -1.2,-0.44 -1.4,-0.66 z"
         inkscape:connector-curvature="0"
         style="fill:#000000;stroke-width:0" /><path
         id="path4970"
         d="m 250.02,707.91 v -0.89 l 1.43,0.1 v 0.31 c -0.7,0 -0.78,0.07 -0.78,0.56 v 3.53 l -1.46,-0.11 v -0.31 c 0.7,0 0.78,-0.07 0.78,-0.56 v -1.77 c 0,-0.86 -0.48,-1.54 -1.21,-1.54 -0.83,0 -0.87,0.47 -0.87,0.99 v 3.3 l -1.47,-0.11 v -0.31 c 0.78,0 0.78,-0.03 0.78,-0.92 v -1.49 c 0,-0.77 0,-1.67 1.51,-1.67 0.56,0 1,0.27 1.29,0.89 z"
         inkscape:connector-curvature="0"
         style="fill:#000000;stroke-width:0" /><path
         id="path4972"
         d="m 253.38,711.1 h 1.42 v 0.31 h -1.42 v 1.82 h -0.25 c -0.01,-0.81 -0.31,-1.87 -1.28,-1.91 v -0.22 h 0.85 v -2.74 c 0,-1.22 0.92,-1.34 1.28,-1.34 0.71,0 0.98,0.7 0.98,1.34 v 0.56 h -0.25 v -0.54 c 0,-0.74 -0.29,-1.12 -0.66,-1.12 -0.67,0 -0.67,0.91 -0.67,1.08 z"
         inkscape:connector-curvature="0"
         style="fill:#000000;stroke-width:0" /></g>    <path
       transform="translate(-164.15445,195.61248)"
       d="m 558,209.36218 a 16,16 0 1 1 -32,0 16,16 0 1 1 32,0 z"
       sodipodi:ry="16"
       sodipodi:rx="16"
       sodipodi:cy="209.36218"
       sodipodi:cx="542"
       id="path4752"
       style="fill:none;stroke:#000000;stroke-width:3;stroke-linecap:butt;stroke-miterlimit:4;stroke-opacity:1;stroke-dasharray:none;stroke-dashoffset:0"
       sodipodi:type="arc" />
    <path
       inkscape:connector-curvature="0"
       id="path5326"
       d="m 939.1453,410.95613 0,449.30231"
       style="fill:none;stroke:#000000;stroke-width:3;stroke-linecap:butt;stroke-linejoin:miter;stroke-miterlimit:4;stroke-opacity:1;stroke-dasharray:none" />
    <path
       style="fill:none;stroke:#000000;stroke-width:3;stroke-linecap:butt;stroke-linejoin:miter;stroke-miterlimit:4;stroke-opacity:1;stroke-dasharray:none;marker-end:url(#TriangleOutL)"
       d="m 34.60104,404.80308 c 79.0294,0 79.0294,0 79.0294,0"
       id="path5328-4"
       inkscape:connector-curvature="0" />
    <path
       inkscape:transform-center-y="161.00146"
       inkscape:connector-curvature="0"
       id="path4754-8"
       d="m 377.39599,634.68879 c 0,-199.61501 0,-199.61501 0,-199.61501"
       style="fill:#0000ff;stroke:#0000ff;stroke-width:3;stroke-linecap:butt;stroke-linejoin:miter;stroke-miterlimit:4;stroke-opacity:1;stroke-dasharray:none;marker-end:url(#TriangleOutL-52Rw)" />
    <flowRoot
       xml:space="preserve"
       id="flowRoot6098"
       style="font-size:40px;font-style:normal;font-variant:normal;font-weight:normal;font-stretch:normal;text-align:start;line-height:125%;letter-spacing:0px;word-spacing:0px;writing-mode:lr-tb;text-anchor:start;fill:#000000;fill-opacity:1;stroke:#000000;stroke-opacity:1;font-family:TeX Gyre Schola;-inkscape-font-specification:TeX Gyre Schola"
       transform="translate(-138.73814,109.95562)"><flowRegion
         id="flowRegion6100"><rect
           id="rect6102"
           width="154"
           height="55"
           x="449"
           y="225.36218"
           style="stroke:#000000;stroke-opacity:1" /></flowRegion><flowPara
         id="flowPara6104">＋</flowPara></flowRoot>    <flowRoot
       xml:space="preserve"
       id="flowRoot6110"
       style="font-size:40px;font-style:normal;font-variant:normal;font-weight:normal;font-stretch:normal;text-align:start;line-height:125%;letter-spacing:0px;word-spacing:0px;writing-mode:lr-tb;text-anchor:start;fill:#0000ff;fill-opacity:1;stroke:none;font-family:TeX Gyre Schola;-inkscape-font-specification:TeX Gyre Schola"
       transform="translate(165.50241,279.30591)"><flowRegion
         id="flowRegion6112"><rect
           style="fill:#0000ff;stroke:none"
           id="rect6114"
           width="176"
           height="108"
           x="232"
           y="174.36218" /></flowRegion><flowPara
         id="flowPara6116">ー</flowPara></flowRoot>    <rect
       y="558.37781"
       x="462.31503"
       height="144.25302"
       width="251.25302"
       id="rect4481"
       style="fill:none;stroke:#0000ff;stroke-width:3;stroke-linecap:butt;stroke-miterlimit:4;stroke-opacity:1;stroke-dasharray:none;stroke-dashoffset:0" />
    <path
       transform="matrix(0.42857143,0,0,0.42857143,707.27384,314.05118)"
       d="m 558,209.36218 a 16,16 0 1 1 -32,0 16,16 0 1 1 32,0 z"
       sodipodi:ry="16"
       sodipodi:rx="16"
       sodipodi:cy="209.36218"
       sodipodi:cx="542"
       id="path4830"
       style="fill:#000000;fill-opacity:1;stroke:#000000;stroke-width:3;stroke-linecap:butt;stroke-miterlimit:4;stroke-opacity:1;stroke-dasharray:none;stroke-dashoffset:0"
       sodipodi:type="arc" />
    <rect
       style="fill:none;stroke:#000000;stroke-width:3;stroke-linecap:butt;stroke-miterlimit:4;stroke-opacity:1;stroke-dasharray:none;stroke-dashoffset:0"
       id="rect4259"
       width="131.86534"
       height="145.07349"
       x="130.46326"
       y="327.82544" />
    <path
       inkscape:connector-curvature="0"
       id="path4261"
       d="m 264.60104,404.80308 c 79.0294,0 79.0294,0 79.0294,0"
       style="fill:none;stroke:#000000;stroke-width:3;stroke-linecap:butt;stroke-linejoin:miter;stroke-miterlimit:4;stroke-opacity:1;stroke-dasharray:none;marker-end:url(#TriangleOutL)" />
    <path
       sodipodi:type="arc"
       style="fill:#000000;fill-opacity:1;stroke:#000000;stroke-width:3;stroke-linecap:butt;stroke-miterlimit:4;stroke-opacity:1;stroke-dasharray:none;stroke-dashoffset:0"
       id="path5593"
       sodipodi:cx="542"
       sodipodi:cy="209.36218"
       sodipodi:rx="16"
       sodipodi:ry="16"
       d="m 558,209.36218 a 16,16 0 1 1 -32,0 16,16 0 1 1 32,0 z"
       transform="matrix(0.42857143,0,0,0.42857143,705.85963,543.15378)" />
    <path
       style="fill:none;stroke:#000000;stroke-width:3;stroke-linecap:butt;stroke-linejoin:miter;stroke-miterlimit:4;stroke-opacity:1;stroke-dasharray:none"
       d="m 938.51468,858.80932 -922.791476,0"
       id="path5595"
       inkscape:connector-curvature="0" />
    <path
       sodipodi:type="arc"
       style="fill:none;stroke:#000000;stroke-width:3;stroke-linecap:butt;stroke-miterlimit:4;stroke-opacity:1;stroke-dasharray:none;stroke-dashoffset:0"
       id="path5597"
       sodipodi:cx="542"
       sodipodi:cy="209.36218"
       sodipodi:rx="16"
       sodipodi:ry="16"
       d="m 558,209.36218 a 16,16 0 1 1 -32,0 16,16 0 1 1 32,0 z"
       transform="translate(-524.15445,195.61248)" />
    <path
       style="fill:#ff0000;stroke:#000000;stroke-width:3;stroke-linecap:butt;stroke-linejoin:miter;stroke-miterlimit:4;stroke-opacity:1;stroke-dasharray:none;marker-end:url(#TriangleOutL-52R)"
       d="m 17.39599,861.07034 c 0,-422.13246 0,-422.13246 0,-422.13246"
       id="path5599"
       inkscape:connector-curvature="0"
       inkscape:transform-center-y="345.29293" />
    <flowRoot
       transform="translate(-498.73814,109.95562)"
       style="font-size:40px;font-style:normal;font-variant:normal;font-weight:normal;font-stretch:normal;text-align:start;line-height:125%;letter-spacing:0px;word-spacing:0px;writing-mode:lr-tb;text-anchor:start;fill:#000000;fill-opacity:1;stroke:#000000;stroke-opacity:1;font-family:TeX Gyre Schola;-inkscape-font-specification:TeX Gyre Schola"
       id="flowRoot5601"
       xml:space="preserve"><flowRegion
         id="flowRegion5603"><rect
           style="stroke:#000000;stroke-opacity:1"
           y="225.36218"
           x="449"
           height="55"
           width="154"
           id="rect5605" /></flowRegion><flowPara
         id="flowPara5607">＋</flowPara></flowRoot>    <flowRoot
       transform="translate(-196.33821,248.19321)"
       style="font-size:40px;font-style:normal;font-variant:normal;font-weight:normal;font-stretch:normal;text-align:start;line-height:125%;letter-spacing:0px;word-spacing:0px;writing-mode:lr-tb;text-anchor:start;fill:#000000;fill-opacity:1;stroke:none;font-family:TeX Gyre Schola;-inkscape-font-specification:TeX Gyre Schola"
       id="flowRoot5609"
       xml:space="preserve"><flowRegion
         id="flowRegion5611"><rect
           y="174.36218"
           x="232"
           height="108"
           width="176"
           id="rect5613"
           style="fill:#000000;stroke:none" /></flowRegion><flowPara
         id="flowPara5615">ー</flowPara></flowRoot>    <path
       style="fill:none;stroke:#000000;stroke-width:3;stroke-linecap:butt;stroke-linejoin:miter;stroke-miterlimit:4;stroke-opacity:1;stroke-dasharray:none;marker-end:url(#TriangleOutL)"
       d="m -95.39896,404.80308 c 79.0294,0 79.0294,0 79.0294,0"
       id="path5617"
       inkscape:connector-curvature="0" />
    <path
       style="fill:#0000ff;stroke:#0000ff;stroke-width:3;stroke-linecap:butt;stroke-linejoin:miter;stroke-miterlimit:4;stroke-opacity:1;stroke-dasharray:none;marker-end:url(#TriangleOutL-52Rw)"
       d="m 931.45768,633.7132 c -199.615,0 -199.615,0 -199.615,0"
       id="path3149"
       inkscape:connector-curvature="0"
       inkscape:transform-center-x="-161.00146" />
    <path
       inkscape:connector-curvature="0"
       id="path3151"
       d="m 460.4064,634.35396 -81.85292,0"
       style="fill:#0000ff;stroke:#0000ff;stroke-width:3;stroke-linecap:butt;stroke-linejoin:miter;stroke-miterlimit:4;stroke-opacity:1;stroke-dasharray:none" />
    <g
       id="g4172"
       transform="matrix(6.030303,0,0,-6.030303,-815.33551,4915.3066)"
       xml:space="preserve"
       stroke="black"
       stroke-linecap="butt"
       stroke-linejoin="miter"
       stroke-miterlimit="10.433"
       stroke-dasharray="none"
       stroke-dashoffset="0"
       stroke-opacity="1"
       fill="none"
       fill-rule="evenodd"
       fill-opacity="1"
       font-style="normal"
       font-variant="normal"
       font-weight="normal"
       font-stretch="normal"
       font-size-adjust="none"
       letter-spacing="normal"
       word-spacing="normal"
       text-anchor="start"
       ns0:text="$F(s)$"
       ns0:preamble=""
       style="font-style:normal;font-variant:normal;font-weight:normal;font-stretch:normal;letter-spacing:normal;word-spacing:normal;text-anchor:start;fill:#0000ff;stroke:#000000;stroke-linecap:butt;stroke-linejoin:miter;stroke-miterlimit:10.43299960999999954;stroke-opacity:1;stroke-dasharray:none;stroke-dashoffset:0"><path
         style="fill:#0000ff"
         d="M226.45,710.35 H227.41 C228.16,710.35,228.24,710.2,228.24,709.91 C228.24,709.84,228.24,709.72,228.17,709.42 C228.15,709.37,228.14,709.33,228.14,709.31 C228.14,709.23,228.2,709.19,228.26,709.19 C228.36,709.19,228.36,709.22,228.41,709.4 L228.95,711.55 C228.98,711.66,228.98,711.68,228.98,711.71 C228.98,711.73,228.96,711.82,228.86,711.82 C228.76,711.82,228.76,711.77,228.71,711.61 C228.51,710.84,228.28,710.66,227.43,710.66 H226.53 L227.16,713.18 C227.25,713.53,227.26,713.57,227.7,713.57 H229.01 C230.24,713.57,230.47,713.24,230.47,712.48 C230.47,712.25,230.47,712.21,230.44,711.94 C230.42,711.81,230.42,711.79,230.42,711.76 C230.42,711.71,230.45,711.65,230.54,711.65 C230.65,711.65,230.65,711.71,230.68,711.89 L230.87,713.61 C230.9,713.88,230.85,713.88,230.6,713.88 H225.73 C225.53,713.88,225.43,713.88,225.43,713.68 C225.43,713.57,225.52,713.57,225.71,713.57 C226.08,713.57,226.36,713.57,226.36,713.39 C226.36,713.35,226.36,713.33,226.31,713.16 L224.99,707.9 C224.9,707.51,224.88,707.43,224.09,707.43 C223.92,707.43,223.81,707.43,223.81,707.24 C223.81,707.12,223.93,707.12,223.96,707.12 C224.25,707.12,224.98,707.16,225.27,707.16 C225.6,707.16,226.43,707.12,226.76,707.12 C226.85,707.12,226.96,707.12,226.96,707.31 C226.96,707.39,226.9,707.41,226.9,707.42 C226.87,707.43,226.85,707.43,226.63,707.43 C226.41,707.43,226.36,707.43,226.11,707.45 C225.82,707.48,225.79,707.52,225.79,707.65 C225.79,707.67,225.79,707.73,225.83,707.88 Z "
         stroke-width="0"
         fill="black"
         id="path4174" /><path
         style="fill:#0000ff"
         d="M234.51,704.74 L234.51,704.75 L234.51,704.75 L234.51,704.75 L234.51,704.76 L234.51,704.76 L234.51,704.76 L234.51,704.77 L234.51,704.77 L234.51,704.77 L234.51,704.78 L234.5,704.78 L234.5,704.79 L234.5,704.79 L234.49,704.8 L234.49,704.8 L234.48,704.81 L234.48,704.82 L234.47,704.82 L234.47,704.83 L234.47,704.83 L234.46,704.84 L234.46,704.84 L234.46,704.84 L234.45,704.85 L234.45,704.85 L234.44,704.86 L234.44,704.86 L234.43,704.87 L234.43,704.87 L234.42,704.88 L234.42,704.88 L234.41,704.89 L234.41,704.9 L234.4,704.9 L234.4,704.91 L234.39,704.92 L234.38,704.92 L234.38,704.93 L234.37,704.94 L234.36,704.94 L234.35,704.95 L234.35,704.96 C233.1,706.21,232.78,708.09,232.78,709.61 C232.78,711.34,233.16,713.07,234.39,714.31 C234.51,714.43,234.51,714.45,234.51,714.48 C234.51,714.55,234.48,714.58,234.42,714.58 C234.32,714.58,233.42,713.9,232.83,712.64 C232.33,711.55,232.21,710.44,232.21,709.61 C232.21,708.83,232.32,707.63,232.86,706.51 C233.46,705.29,234.32,704.64,234.42,704.64 C234.48,704.64,234.51,704.67,234.51,704.74 Z "
         stroke-width="0"
         fill="black"
         id="path4176" /><path
         style="fill:#0000ff"
         d="M238.99,710.84 L238.96,710.84 L238.94,710.84 L238.91,710.83 L238.89,710.83 L238.86,710.82 L238.84,710.81 L238.82,710.81 L238.8,710.8 L238.77,710.79 L238.75,710.78 L238.73,710.76 L238.71,710.75 L238.7,710.74 L238.68,710.72 L238.66,710.71 L238.64,710.69 L238.63,710.68 L238.61,710.66 L238.6,710.65 L238.59,710.63 L238.58,710.61 L238.56,710.59 L238.55,710.57 L238.55,710.55 L238.54,710.53 L238.53,710.51 L238.52,710.49 L238.52,710.47 L238.52,710.45 L238.51,710.43 L238.51,710.41 L238.51,710.39 C238.51,710.25,238.6,710.1,238.82,710.1 C239.04,710.1,239.28,710.27,239.28,710.66 C239.28,711.11,238.85,711.52,238.09,711.52 C236.78,711.52,236.41,710.5,236.41,710.07 C236.41,709.29,237.15,709.14,237.43,709.08 C237.95,708.98,238.47,708.87,238.47,708.33 C238.47,708.07,238.24,707.23,237.05,707.23 C236.91,707.23,236.14,707.23,235.91,707.76 C236.29,707.71,236.54,708.01,236.54,708.29 C236.54,708.52,236.38,708.64,236.17,708.64 C235.91,708.64,235.61,708.43,235.61,707.98 C235.61,707.41,236.18,707.02,237.04,707.02 C238.65,707.02,239.04,708.22,239.04,708.66 C239.04,709.02,238.85,709.27,238.73,709.39 C238.46,709.67,238.17,709.72,237.73,709.81 C237.38,709.89,236.98,709.96,236.98,710.4 C236.98,710.69,237.22,711.3,238.09,711.3 C238.34,711.3,238.84,711.23,238.99,710.84 Z "
         stroke-width="0"
         fill="black"
         id="path4178" /><path
         style="fill:#0000ff"
         d="M242.64,709.61 L242.64,709.68 L242.64,709.76 L242.64,709.84 L242.64,709.92 L242.63,710.09 L242.62,710.26 L242.6,710.44 L242.58,710.63 L242.55,710.83 L242.52,711.03 L242.48,711.23 L242.43,711.44 L242.38,711.65 L242.32,711.86 L242.25,712.07 L242.17,712.28 L242.13,712.39 L242.08,712.5 L242.04,712.6 L241.99,712.71 C241.39,713.93,240.53,714.58,240.43,714.58 C240.37,714.58,240.33,714.54,240.33,714.48 C240.33,714.45,240.33,714.43,240.52,714.25 C241.5,713.26,242.07,711.68,242.07,709.61 C242.07,707.91,241.7,706.16,240.46,704.91 C240.33,704.79,240.33,704.77,240.33,704.74 C240.33,704.68,240.37,704.64,240.43,704.64 C240.53,704.64,241.43,705.32,242.01,706.58 C242.52,707.67,242.64,708.77,242.64,709.61 Z "
         stroke-width="0"
         fill="black"
         id="path4180" /></g>    <g
       style="font-style:normal;font-variant:normal;font-weight:normal;font-stretch:normal;letter-spacing:normal;word-spacing:normal;text-anchor:start;fill:none;stroke:#000000;stroke-linecap:butt;stroke-linejoin:miter;stroke-miterlimit:10.43299961;stroke-opacity:1;stroke-dasharray:none;stroke-dashoffset:0"
       ns0:preamble=""
       ns0:text="$\\frac{K_i}{s}$"
       word-spacing="normal"
       letter-spacing="normal"
       font-size-adjust="none"
       font-stretch="normal"
       font-weight="normal"
       font-variant="normal"
       font-style="normal"
       stroke-miterlimit="10.433"
       xml:space="preserve"
       transform="matrix(6.8708217,0,0,-6.8708217,-1384.2807,5283.7144)"
       id="g4442"><path
         id="path4444"
         d="m 228.61,714.01 0,0 0,0.01 -0.01,0 0,0 0,0.01 0,0 0,0.01 -0.01,0 0,0 0,0.01 0,0 0,0 -0.01,0.01 0,0 0,0 0,0.01 0,0 0,0 0,0 0,0 -0.01,0.01 0,0 0,0 0,0 0,0 0,0 0,0 0,0.01 0,0 0,0 0,0 0,0 c 0,0.01 0.01,0.02 0.17,0.13 l 0.7,0.5 c 0.92,0.64 1.35,0.95 1.85,0.99 0.07,0.01 0.16,0.01 0.16,0.15 0,0.06 -0.05,0.09 -0.09,0.09 -0.15,0 -0.33,-0.02 -0.48,-0.02 -0.19,0 -0.66,0.03 -0.85,0.03 -0.04,0 -0.14,0 -0.14,-0.15 0,-0.01 0,-0.09 0.1,-0.1 0.08,-0.01 0.17,-0.02 0.17,-0.1 0,-0.12 -0.21,-0.28 -0.3,-0.34 l -2.91,-2.04 0.55,2.19 c 0.07,0.23 0.07,0.29 0.62,0.29 0.11,0 0.21,0 0.21,0.14 0,0.07 -0.05,0.11 -0.12,0.11 -0.2,0 -0.71,-0.03 -0.91,-0.03 -0.12,0 -0.36,0 -0.48,0.01 -0.14,0.01 -0.31,0.02 -0.44,0.02 -0.04,0 -0.14,0 -0.14,-0.15 0,-0.1 0.07,-0.1 0.23,-0.1 0.11,0 0.14,0 0.26,-0.01 0.14,-0.02 0.15,-0.03 0.15,-0.1 0,-0.02 0,-0.05 -0.02,-0.15 l -0.93,-3.7 c -0.05,-0.23 -0.07,-0.29 -0.61,-0.29 -0.13,0 -0.21,0 -0.21,-0.15 0,-0.01 0,-0.1 0.11,-0.1 0.2,0 0.7,0.03 0.9,0.03 0.12,0 0.37,0 0.49,-0.01 0.13,-0.01 0.31,-0.02 0.44,-0.02 0.04,0 0.15,0 0.15,0.15 0,0.1 -0.09,0.1 -0.22,0.1 -0.01,0 -0.14,0 -0.27,0.01 -0.16,0.02 -0.16,0.04 -0.16,0.11 0,0.05 0.07,0.31 0.33,1.33 l 1.15,0.82 1.01,-1.96 c 0.05,-0.09 0.05,-0.09 0.05,-0.13 0,-0.16 -0.19,-0.18 -0.32,-0.18 -0.08,0 -0.18,0 -0.18,-0.15 0,-0.01 0.01,-0.1 0.12,-0.1 0.19,0 0.7,0.03 0.89,0.03 0.21,0 0.49,-0.03 0.68,-0.03 0.09,0 0.14,0.05 0.14,0.15 0,0.1 -0.09,0.1 -0.16,0.1 -0.12,0 -0.34,0.01 -0.46,0.23 z"
         inkscape:connector-curvature="0"
         style="fill:#000000;stroke-width:0" /><path
         id="path4446"
         d="m 233.29,713.31 0,0.01 0,0.02 0,0.01 0,0.01 0,0.01 -0.01,0.01 0,0.01 0,0.01 -0.01,0.01 0,0.01 -0.01,0 0,0.01 -0.01,0.01 -0.01,0.01 0,0.01 -0.01,0 -0.01,0.01 0,0.01 -0.01,0 -0.01,0.01 -0.01,0.01 -0.01,0 -0.01,0.01 -0.01,0 -0.01,0 -0.01,0.01 -0.01,0 -0.01,0 -0.01,0 -0.01,0.01 -0.02,0 -0.01,0 c -0.14,0 -0.3,-0.14 -0.3,-0.3 0,-0.14 0.11,-0.21 0.21,-0.21 0.17,0 0.31,0.14 0.31,0.29 z"
         inkscape:connector-curvature="0"
         style="fill:#000000;stroke-width:0" /><path
         id="path4448"
         d="m 233.53,710.93 0,0 0,0.01 0,0 0,0 -0.01,0 0,0.01 0,0 0,0 0,0 0,0.01 0,0 0,0 0,0 0,0.01 -0.01,0 0,0 0,0 0,0 0,0 0,0.01 -0.01,0 0,0 -0.01,0 0,0.01 0,0 -0.01,0 0,0 -0.01,0 0,0 -0.01,0.01 0,0 -0.01,0 0,0 0,0 -0.01,0 0,0 -0.01,0 0,0 0,0 0,0 -0.01,0 0,0 0,0 c -0.08,0 -0.09,-0.02 -0.12,-0.11 -0.08,-0.28 -0.31,-0.56 -0.56,-0.56 -0.11,0 -0.14,0.08 -0.14,0.19 0,0.1 0.02,0.16 0.06,0.25 0.04,0.1 0.08,0.2 0.1,0.27 0.03,0.04 0.22,0.5 0.29,0.68 0.04,0.1 0.07,0.17 0.07,0.25 0,0.24 -0.23,0.44 -0.54,0.44 -0.53,0 -0.81,-0.64 -0.81,-0.77 0,-0.07 0.08,-0.07 0.11,-0.07 0.08,0 0.09,0.02 0.11,0.1 0.11,0.35 0.35,0.57 0.57,0.57 0.09,0 0.15,-0.05 0.15,-0.19 0,-0.02 0,-0.08 -0.03,-0.18 -0.04,-0.09 -0.26,-0.62 -0.33,-0.79 -0.04,-0.08 -0.04,-0.09 -0.11,-0.26 -0.03,-0.07 -0.06,-0.14 -0.06,-0.22 0,-0.26 0.25,-0.44 0.55,-0.44 0.52,0 0.8,0.64 0.8,0.77 z"
         inkscape:connector-curvature="0"
         style="fill:#000000;stroke-width:0" /><line
         id="line4450"
         y2="709.62"
         x2="234.48"
         y1="709.62"
         x1="224.63"
         style="stroke-width:0.398" /><path
         id="path4452"
         d="m 230.68,706.3 -0.02,0 -0.02,0 -0.01,-0.01 -0.02,-0.01 -0.01,0 -0.02,-0.01 -0.01,-0.01 -0.02,0 -0.01,-0.01 -0.01,-0.01 -0.02,-0.01 -0.01,-0.01 -0.01,-0.01 -0.01,-0.01 -0.01,-0.01 -0.01,-0.01 -0.01,-0.01 -0.01,-0.01 -0.01,-0.02 0,-0.01 -0.01,-0.01 -0.01,-0.01 0,-0.02 -0.01,-0.01 0,-0.01 -0.01,-0.01 0,-0.02 0,-0.01 -0.01,-0.01 0,-0.02 0,-0.01 0,-0.01 c 0,-0.16 0.14,-0.22 0.23,-0.22 0.07,0 0.34,0.04 0.34,0.39 0,0.45 -0.5,0.61 -0.93,0.61 -1.09,0 -1.28,-0.8 -1.28,-1.02 0,-0.26 0.14,-0.42 0.24,-0.51 0.18,-0.14 0.31,-0.16 0.79,-0.25 0.14,-0.02 0.59,-0.11 0.59,-0.46 0,-0.11 -0.07,-0.38 -0.37,-0.55 -0.27,-0.15 -0.61,-0.15 -0.69,-0.15 -0.28,0 -0.68,0.06 -0.84,0.29 0.23,0.03 0.38,0.2 0.38,0.39 0,0.18 -0.12,0.26 -0.27,0.26 -0.2,0 -0.4,-0.16 -0.4,-0.47 0,-0.41 0.44,-0.67 1.12,-0.67 1.28,0 1.52,0.88 1.52,1.15 0,0.64 -0.71,0.76 -0.96,0.81 -0.07,0.01 -0.24,0.04 -0.28,0.06 -0.26,0.05 -0.39,0.19 -0.39,0.34 0,0.17 0.13,0.35 0.28,0.45 0.19,0.12 0.44,0.13 0.55,0.13 0.15,0 0.51,-0.02 0.67,-0.26 z"
         inkscape:connector-curvature="0"
         style="fill:#000000;stroke-width:0" /></g>  </g>
</svg>
