<?xml version="1.0" encoding="UTF-8" standalone="no"?>
<!-- Created with Inkscape (http://www.inkscape.org/) -->

<svg
   xmlns:ns0="http://www.iki.fi/pav/software/textext/"
   xmlns:dc="http://purl.org/dc/elements/1.1/"
   xmlns:cc="http://creativecommons.org/ns#"
   xmlns:rdf="http://www.w3.org/1999/02/22-rdf-syntax-ns#"
   xmlns:svg="http://www.w3.org/2000/svg"
   xmlns="http://www.w3.org/2000/svg"
   xmlns:sodipodi="http://sodipodi.sourceforge.net/DTD/sodipodi-0.dtd"
   xmlns:inkscape="http://www.inkscape.org/namespaces/inkscape"
   sodipodi:docname="state_fb.eps"
   inkscape:version="0.48.4 r9939"
   version="1.1"
   id="svg2"
   height="297mm"
   width="210mm">
  <sodipodi:namedview
     id="base"
     pagecolor="#ffffff"
     bordercolor="#666666"
     borderopacity="1.0"
     inkscape:pageopacity="0.0"
     inkscape:pageshadow="2"
     inkscape:zoom="0.5"
     inkscape:cx="227.33955"
     inkscape:cy="577.6957"
     inkscape:document-units="px"
     inkscape:current-layer="layer1"
     showgrid="false"
     inkscape:window-width="1315"
     inkscape:window-height="744"
     inkscape:window-x="51"
     inkscape:window-y="24"
     inkscape:window-maximized="1" />
  <defs
     id="defs4">
    <marker
       style="overflow:visible"
       id="TriangleOutL"
       refX="0.0"
       refY="0.0"
       orient="auto"
       inkscape:stockid="TriangleOutL">
      <path
         transform="scale(0.8)"
         style="fill-rule:evenodd;stroke:#000000;stroke-width:1.0pt"
         d="M 5.77,0.0 L -2.88,5.0 L -2.88,-5.0 L 5.77,0.0 z "
         id="path4370" />
    </marker>
    <marker
       style="overflow:visible"
       id="TriangleOutL-5"
       refX="0"
       refY="0"
       orient="auto"
       inkscape:stockid="TriangleOutL">
      <path
         transform="scale(0.8,0.8)"
         style="fill-rule:evenodd;stroke:#000000;stroke-width:1pt"
         d="m 5.77,0 -8.65,5 0,-10 8.65,5 z"
         id="path4370-0"
         inkscape:connector-curvature="0" />
    </marker>
    <marker
       style="overflow:visible"
       id="TriangleOutL-2"
       refX="0"
       refY="0"
       orient="auto"
       inkscape:stockid="TriangleOutL">
      <path
         transform="scale(0.8,0.8)"
         style="fill-rule:evenodd;stroke:#000000;stroke-width:1pt"
         d="m 5.77,0 -8.65,5 0,-10 8.65,5 z"
         id="path4370-7"
         inkscape:connector-curvature="0" />
    </marker>
    <marker
       style="overflow:visible"
       id="TriangleOutL-21"
       refX="0"
       refY="0"
       orient="auto"
       inkscape:stockid="TriangleOutL">
      <path
         transform="scale(0.8,0.8)"
         style="fill-rule:evenodd;stroke:#000000;stroke-width:1pt"
         d="m 5.77,0 -8.65,5 0,-10 8.65,5 z"
         id="path4370-6"
         inkscape:connector-curvature="0" />
    </marker>
    <marker
       style="overflow:visible"
       id="TriangleOutL-9"
       refX="0"
       refY="0"
       orient="auto"
       inkscape:stockid="TriangleOutL">
      <path
         transform="scale(0.8,0.8)"
         style="fill-rule:evenodd;stroke:#000000;stroke-width:1pt"
         d="m 5.77,0 -8.65,5 0,-10 8.65,5 z"
         id="path4370-62"
         inkscape:connector-curvature="0" />
    </marker>
    <marker
       style="overflow:visible"
       id="TriangleOutL-7"
       refX="0"
       refY="0"
       orient="auto"
       inkscape:stockid="TriangleOutL">
      <path
         transform="scale(0.8,0.8)"
         style="fill-rule:evenodd;stroke:#000000;stroke-width:1pt"
         d="m 5.77,0 -8.65,5 0,-10 8.65,5 z"
         id="path4370-1"
         inkscape:connector-curvature="0" />
    </marker>
    <marker
       style="overflow:visible"
       id="TriangleOutL-0"
       refX="0"
       refY="0"
       orient="auto"
       inkscape:stockid="TriangleOutL">
      <path
         transform="scale(0.8,0.8)"
         style="fill-rule:evenodd;stroke:#000000;stroke-width:1pt"
         d="m 5.77,0 -8.65,5 0,-10 8.65,5 z"
         id="path4370-79"
         inkscape:connector-curvature="0" />
    </marker>
    <marker
       style="overflow:visible"
       id="TriangleOutL-1"
       refX="0"
       refY="0"
       orient="auto"
       inkscape:stockid="TriangleOutL">
      <path
         inkscape:connector-curvature="0"
         transform="scale(0.8,0.8)"
         style="fill-rule:evenodd;stroke:#000000;stroke-width:1pt"
         d="m 5.77,0 -8.65,5 0,-10 8.65,5 z"
         id="path4370-2" />
    </marker>
  </defs>
  <metadata
     id="metadata7">
    <rdf:RDF>
      <cc:Work
         rdf:about="">
        <dc:format>image/svg+xml</dc:format>
        <dc:type
           rdf:resource="http://purl.org/dc/dcmitype/StillImage" />
        <dc:title></dc:title>
      </cc:Work>
    </rdf:RDF>
  </metadata>
  <g
     inkscape:label="レイヤー 1"
     inkscape:groupmode="layer"
     id="layer1">
    <rect
       style="fill:none;stroke:#000000;stroke-width:3;stroke-miterlimit:4;stroke-opacity:1;stroke-dasharray:none;stroke-dashoffset:0"
       id="rect2985"
       width="328"
       height="189"
       x="74"
       y="319.36218" />
    <path
       inkscape:connector-curvature="0"
       id="path4222-8"
       d="m -96.92823,424.45136 c 156.977704,0 156.977704,0 156.977704,0"
       style="fill:none;stroke:#000000;stroke-width:2;stroke-linecap:butt;stroke-linejoin:miter;stroke-miterlimit:4;stroke-opacity:1;stroke-dasharray:none;marker-end:url(#TriangleOutL)" />
    <path
       inkscape:connector-curvature="0"
       id="path5051"
       d="m 335.8995,641.98061 0,-134.60057"
       style="fill:none;stroke:#000000;stroke-width:2;stroke-linecap:butt;stroke-linejoin:miter;stroke-miterlimit:4;stroke-opacity:1;stroke-dasharray:none" />
    <path
       inkscape:connector-curvature="0"
       id="path4222-4"
       d="m -117.14596,633.42744 c 0,-177.64277 0,-177.64277 0,-177.64277"
       style="fill:none;stroke:#000000;stroke-width:2;stroke-linecap:butt;stroke-linejoin:miter;stroke-miterlimit:4;stroke-opacity:1;stroke-dasharray:none;marker-end:url(#TriangleOutL)" />
    <flowRoot
       transform="translate(-11.313709,28.284271)"
       style="font-size:32px;font-style:normal;font-weight:normal;line-height:125%;letter-spacing:0px;word-spacing:0px;fill:#000000;fill-opacity:1;stroke:none;font-family:Times New Roman;-inkscape-font-specification:Times New Roman"
       id="flowRoot3189"
       xml:space="preserve"><flowRegion
         id="flowRegion3191"><rect
           y="250.5031"
           x="-50.91169"
           height="63.639603"
           width="255.97266"
           id="rect3193" /></flowRegion><flowPara
         id="flowPara3195">System of interest</flowPara></flowRoot>    <flowRoot
       transform="translate(-519.45584,20.426407)"
       style="font-size:32px;font-style:normal;font-weight:normal;line-height:125%;letter-spacing:0px;word-spacing:0px;fill:#000000;fill-opacity:1;stroke:none;font-family:Times New Roman;-inkscape-font-specification:Times New Roman"
       id="flowRoot3239"
       xml:space="preserve"><flowRegion
         id="flowRegion3241"><rect
           y="544.65948"
           x="869.74133"
           height="107.48023"
           width="176.7767"
           id="rect3243" /></flowRegion><flowPara
         id="flowPara3247">state</flowPara></flowRoot>    <path
       transform="translate(-658,215)"
       d="m 558,209.36218 a 16,16 0 1 1 -32,0 16,16 0 1 1 32,0 z"
       sodipodi:ry="16"
       sodipodi:rx="16"
       sodipodi:cy="209.36218"
       sodipodi:cx="542"
       id="path4752"
       style="fill:none;stroke:#000000;stroke-width:3;stroke-linecap:butt;stroke-miterlimit:4;stroke-opacity:1;stroke-dasharray:none;stroke-dashoffset:0"
       sodipodi:type="arc" />
    <g
       style="font-style:normal;font-variant:normal;font-weight:normal;font-stretch:normal;letter-spacing:normal;word-spacing:normal;text-anchor:start;fill:none;stroke:#000000;stroke-linecap:butt;stroke-linejoin:miter;stroke-miterlimit:10.43299961;stroke-opacity:1;stroke-dasharray:none;stroke-dashoffset:0"
       id="content"
       transform="matrix(3,0,0,-3,-736,2512)"
       xml:space="preserve"
       stroke-miterlimit="10.433"
       font-style="normal"
       font-variant="normal"
       font-weight="normal"
       font-stretch="normal"
       font-size-adjust="none"
       letter-spacing="normal"
       word-spacing="normal"
       ns0:text="$u=-kx$"
       ns0:preamble=""><path
         style="fill:#000000;stroke-width:0"
         inkscape:connector-curvature="0"
         d="m 226.91,707.68 0.02,-0.04 0.01,-0.03 0.01,-0.04 0.02,-0.03 0.01,-0.04 0.02,-0.03 0.02,-0.03 0.02,-0.03 0.02,-0.03 0.02,-0.03 0.03,-0.03 0.02,-0.03 0.03,-0.02 0.02,-0.03 0.03,-0.02 0.03,-0.02 0.03,-0.03 0.03,-0.01 0.03,-0.02 0.03,-0.02 0.03,-0.02 0.04,-0.01 0.03,-0.02 0.04,-0.01 0.03,-0.01 0.04,-0.01 0.04,-0.01 0.03,0 0.04,-0.01 0.04,0 0.04,0 0.04,0 c 0.35,0 0.58,0.22 0.74,0.54 0.17,0.36 0.29,0.97 0.29,0.99 0,0.1 -0.09,0.1 -0.12,0.1 -0.09,0 -0.1,-0.05 -0.13,-0.18 -0.14,-0.56 -0.33,-1.24 -0.75,-1.24 -0.21,0 -0.31,0.13 -0.31,0.46 0,0.22 0.12,0.69 0.2,1.03 l 0.28,1.08 c 0.03,0.15 0.13,0.52 0.17,0.67 0.05,0.23 0.15,0.61 0.15,0.67 0,0.18 -0.14,0.27 -0.29,0.27 -0.05,0 -0.31,-0.01 -0.39,-0.35 -0.19,-0.73 -0.63,-2.47 -0.75,-2.99 -0.01,-0.04 -0.4,-0.84 -1.13,-0.84 -0.52,0 -0.62,0.45 -0.62,0.82 0,0.55 0.28,1.34 0.54,2.03 0.12,0.29 0.17,0.43 0.17,0.62 0,0.45 -0.32,0.82 -0.82,0.82 -0.94,0 -1.31,-1.44 -1.31,-1.53 0,-0.1 0.1,-0.1 0.12,-0.1 0.1,0 0.11,0.02 0.16,0.18 0.25,0.86 0.63,1.23 1,1.23 0.09,0 0.25,-0.01 0.25,-0.33 0,-0.24 -0.11,-0.53 -0.17,-0.68 -0.37,-0.98 -0.57,-1.6 -0.57,-2.08 0,-0.95 0.68,-1.19 1.22,-1.19 0.66,0 1.01,0.44 1.18,0.66 z"
         id="path6080" /><path
         style="fill:#000000;stroke-width:0"
         inkscape:connector-curvature="0"
         d="m 238.74,710.37 0.03,0 0.03,0 0.02,0 0.02,0.01 0.01,0 0.02,0 0.01,0 0.02,0 0.01,0 0.01,0.01 0.02,0 0.01,0 0.01,0.01 0.02,0 0.01,0.01 0.01,0 0.01,0.01 0.01,0.01 0.01,0.01 0.01,0.01 0,0.01 0.01,0 0,0.01 0,0 0.01,0.01 0,0.01 0,0 0.01,0.01 0,0.01 0,0 0,0.01 0,0.01 0,0.01 0,0.01 0.01,0 0,0.01 0,0.01 c 0,0.2 -0.19,0.2 -0.33,0.2 h -5.96 c -0.14,0 -0.33,0 -0.33,-0.2 0,-0.2 0.19,-0.2 0.34,-0.2 z"
         id="path6082" /><path
         style="fill:#000000;stroke-width:0"
         inkscape:connector-curvature="0"
         d="m 238.75,708.45 0.01,0 0.01,0 0.03,0 0.03,0 0.01,0 0.02,0 0.01,0 0.02,0 0.01,0 0.01,0.01 0.02,0 0.01,0 0.01,0.01 0.01,0 0.02,0.01 0.01,0 0.01,0.01 0.01,0 0.01,0.01 0.01,0.01 0.01,0.01 0,0 0,0.01 0.01,0.01 0,0 0,0.01 0.01,0 0,0.01 0,0.01 0.01,0 0,0.01 0,0.01 0,0 0,0.01 0,0.01 0,0.01 0.01,0.01 0,0.01 0,0.01 c 0,0.19 -0.19,0.19 -0.34,0.19 h -5.94 c -0.15,0 -0.34,0 -0.34,-0.19 0,-0.2 0.19,-0.2 0.33,-0.2 z"
         id="path6084" /><path
         style="fill:#000000;stroke-width:0"
         inkscape:connector-curvature="0"
         d="m 248.98,709.41 0.03,0 0.03,0 0.03,0 0.02,0 0.01,0 0.02,0 0.01,0.01 0.02,0 0.01,0 0.01,0 0.02,0.01 0.01,0 0.01,0 0.02,0.01 0.01,0.01 0.01,0 0.01,0.01 0.01,0.01 0.01,0 0.01,0.01 0,0.01 0.01,0.01 0,0 0,0.01 0.01,0.01 0,0 0,0.01 0,0.01 0.01,0 0,0.01 0,0.01 0,0.01 0,0 0,0.01 0,0.01 0,0.01 0,0.01 c 0,0.2 -0.17,0.2 -0.34,0.2 h -5.39 c -0.17,0 -0.35,0 -0.35,-0.2 0,-0.2 0.18,-0.2 0.35,-0.2 z"
         id="path6086" /><path
         style="fill:#000000;stroke-width:0"
         inkscape:connector-curvature="0"
         d="m 253.02,713.91 0,0 0,0 0,0 0,0 0,0.01 0,0 0,0 0,0.01 0,0 0,0.01 0,0 0,0 0,0.01 -0.01,0 0,0.01 0,0 0,0.01 -0.01,0 0,0.01 0,0 -0.01,0.01 0,0 0,0 -0.01,0 0,0.01 0,0 -0.01,0 0,0 0,0 -0.01,0.01 0,0 0,0 -0.01,0 0,0 -0.01,0 0,0 0,0 -0.01,0.01 0,0 -0.01,0 0,0 -0.01,0 -0.01,0 0,0 -0.01,0 c -0.23,0 -0.95,-0.08 -1.21,-0.1 -0.08,-0.01 -0.19,-0.02 -0.19,-0.2 0,-0.12 0.09,-0.12 0.24,-0.12 0.48,0 0.5,-0.07 0.5,-0.17 l -0.03,-0.2 -1.45,-5.72 c -0.04,-0.14 -0.04,-0.16 -0.04,-0.22 0,-0.22 0.2,-0.27 0.29,-0.27 0.13,0 0.28,0.08 0.34,0.2 0.05,0.09 0.5,1.93 0.56,2.18 0.34,-0.03 1.15,-0.19 1.15,-0.85 0,-0.06 0,-0.1 -0.03,-0.2 -0.02,-0.12 -0.04,-0.24 -0.04,-0.35 0,-0.59 0.4,-0.98 0.92,-0.98 0.3,0 0.56,0.15 0.78,0.52 0.25,0.44 0.36,0.99 0.36,1.01 0,0.1 -0.09,0.1 -0.12,0.1 -0.1,0 -0.11,-0.05 -0.14,-0.18 -0.19,-0.73 -0.42,-1.24 -0.86,-1.24 -0.19,0 -0.32,0.11 -0.32,0.47 0,0.17 0.04,0.4 0.08,0.56 0.04,0.17 0.04,0.21 0.04,0.31 0,0.64 -0.63,0.93 -1.47,1.04 0.3,0.18 0.62,0.49 0.85,0.73 0.48,0.53 0.94,0.96 1.42,0.96 0.07,0 0.07,0 0.09,-0.01 0.12,-0.02 0.13,-0.02 0.21,-0.08 0.02,-0.01 0.02,-0.02 0.04,-0.04 -0.47,-0.03 -0.56,-0.42 -0.56,-0.54 0,-0.16 0.1,-0.35 0.37,-0.35 0.26,0 0.55,0.22 0.55,0.61 0,0.3 -0.23,0.63 -0.68,0.63 -0.27,0 -0.73,-0.08 -1.45,-0.88 -0.34,-0.38 -0.72,-0.77 -1.1,-0.92 z"
         id="path6088" /><path
         style="fill:#000000;stroke-width:0"
         inkscape:connector-curvature="0"
         d="m 258.99,710.12 0.01,0.03 0.01,0.03 0.01,0.03 0.01,0.04 0.01,0.04 0.01,0.04 0.01,0.04 0.02,0.05 0.01,0.04 0.02,0.05 0.02,0.05 0.02,0.05 0.02,0.05 0.03,0.05 0.02,0.05 0.03,0.05 0.03,0.05 0.03,0.04 0.03,0.05 0.04,0.04 0.04,0.05 0.04,0.04 0.04,0.04 0.04,0.03 0.05,0.03 0.05,0.03 0.02,0.01 0.03,0.02 0.02,0.01 0.03,0.01 0.03,0.01 0.03,0 0.03,0.01 0.02,0.01 0.04,0 0.03,0 0.03,0.01 0.03,0 c 0.05,0 0.29,0 0.5,-0.13 -0.28,-0.05 -0.48,-0.3 -0.48,-0.54 0,-0.16 0.11,-0.35 0.38,-0.35 0.22,0 0.54,0.18 0.54,0.58 0,0.52 -0.59,0.66 -0.93,0.66 -0.58,0 -0.92,-0.53 -1.04,-0.76 -0.25,0.66 -0.79,0.76 -1.08,0.76 -1.03,0 -1.6,-1.29 -1.6,-1.53 0,-0.1 0.1,-0.1 0.12,-0.1 0.08,0 0.11,0.02 0.13,0.11 0.34,1.05 0.99,1.3 1.33,1.3 0.19,0 0.54,-0.09 0.54,-0.67 0,-0.31 -0.17,-0.97 -0.54,-2.36 -0.16,-0.62 -0.51,-1.04 -0.94,-1.04 -0.06,0 -0.29,0 -0.5,0.13 0.25,0.05 0.47,0.26 0.47,0.54 0,0.27 -0.22,0.35 -0.37,0.35 -0.3,0 -0.55,-0.26 -0.55,-0.58 0,-0.46 0.5,-0.65 0.94,-0.65 0.65,0 1.01,0.69 1.04,0.75 0.12,-0.37 0.48,-0.75 1.08,-0.75 1.02,0 1.59,1.28 1.59,1.53 0,0.1 -0.09,0.1 -0.12,0.1 -0.09,0 -0.11,-0.05 -0.13,-0.11 -0.33,-1.07 -1.01,-1.31 -1.32,-1.31 -0.39,0 -0.55,0.32 -0.55,0.66 0,0.22 0.06,0.44 0.17,0.87 z"
         id="path6090" /></g>    <rect
       style="fill:none;stroke:#000000;stroke-width:3;stroke-miterlimit:4;stroke-opacity:1;stroke-dasharray:none;stroke-dashoffset:0"
       id="rect2985-3"
       width="264.65955"
       height="95.711632"
       x="-8.3558168"
       y="583.50635" />
    <path
       inkscape:connector-curvature="0"
       id="path4222-8-9"
       d="m 337.4207,640.36218 c -70.68439,0 -70.68439,0 -70.68439,0"
       style="fill:none;stroke:#000000;stroke-width:2;stroke-linecap:butt;stroke-linejoin:miter;stroke-miterlimit:4;stroke-opacity:1;stroke-dasharray:none;marker-end:url(#TriangleOutL)" />
    <path
       inkscape:connector-curvature="0"
       id="path5051-7"
       d="m -117.50527,634.36218 107.010532,0"
       style="fill:none;stroke:#000000;stroke-width:2;stroke-linecap:butt;stroke-linejoin:miter;stroke-miterlimit:4;stroke-opacity:1;stroke-dasharray:none" />
    <g
       style="font-style:normal;font-variant:normal;font-weight:normal;font-stretch:normal;letter-spacing:normal;word-spacing:normal;text-anchor:start;fill:none;stroke:#000000;stroke-linecap:butt;stroke-linejoin:miter;stroke-miterlimit:10.43299961;stroke-opacity:1;stroke-dasharray:none;stroke-dashoffset:0"
       id="g7313"
       transform="matrix(3,0,0,-3,-302,2744)"
       xml:space="preserve"
       stroke-miterlimit="10.433"
       font-style="normal"
       font-variant="normal"
       font-weight="normal"
       font-stretch="normal"
       font-size-adjust="none"
       letter-spacing="normal"
       word-spacing="normal"
       ns0:text="$x$"
       ns0:preamble=""><path
         style="fill:#000000;stroke-width:0"
         inkscape:connector-curvature="0"
         d="m 226.76,710.12 0,0.03 0.01,0.03 0.01,0.03 0.01,0.04 0.01,0.04 0.01,0.04 0.01,0.04 0.02,0.05 0.01,0.04 0.02,0.05 0.02,0.05 0.02,0.05 0.02,0.05 0.03,0.05 0.02,0.05 0.03,0.05 0.03,0.05 0.03,0.04 0.03,0.05 0.04,0.04 0.04,0.05 0.04,0.04 0.04,0.04 0.04,0.03 0.05,0.03 0.05,0.03 0.02,0.01 0.03,0.02 0.02,0.01 0.03,0.01 0.03,0.01 0.03,0 0.03,0.01 0.02,0.01 0.04,0 0.03,0 0.03,0.01 0.03,0 c 0.05,0 0.29,0 0.5,-0.13 -0.28,-0.05 -0.48,-0.3 -0.48,-0.54 0,-0.16 0.11,-0.35 0.38,-0.35 0.22,0 0.54,0.18 0.54,0.58 0,0.52 -0.59,0.66 -0.93,0.66 -0.58,0 -0.93,-0.53 -1.04,-0.76 -0.25,0.66 -0.79,0.76 -1.08,0.76 -1.03,0 -1.6,-1.29 -1.6,-1.53 0,-0.1 0.1,-0.1 0.12,-0.1 0.08,0 0.11,0.02 0.13,0.11 0.34,1.05 0.99,1.3 1.33,1.3 0.19,0 0.54,-0.09 0.54,-0.67 0,-0.31 -0.17,-0.97 -0.54,-2.36 -0.16,-0.62 -0.51,-1.04 -0.94,-1.04 -0.06,0 -0.29,0 -0.5,0.13 0.25,0.05 0.47,0.26 0.47,0.54 0,0.27 -0.22,0.35 -0.37,0.35 -0.3,0 -0.55,-0.26 -0.55,-0.58 0,-0.46 0.5,-0.65 0.94,-0.65 0.65,0 1.01,0.69 1.04,0.75 0.12,-0.37 0.48,-0.75 1.07,-0.75 1.03,0 1.6,1.28 1.6,1.53 0,0.1 -0.09,0.1 -0.12,0.1 -0.09,0 -0.11,-0.05 -0.13,-0.11 -0.33,-1.07 -1.01,-1.31 -1.33,-1.31 -0.38,0 -0.54,0.32 -0.54,0.66 0,0.22 0.06,0.44 0.17,0.87 z"
         id="path7315" /></g>    <flowRoot
       transform="translate(402,402)"
       style="font-size:32px;font-style:normal;font-weight:normal;line-height:125%;letter-spacing:0px;word-spacing:0px;fill:#000000;fill-opacity:1;stroke:none;font-family:Times New Roman;-inkscape-font-specification:Times New Roman"
       id="flowRoot7381"
       xml:space="preserve"><flowRegion
         id="flowRegion7383"><rect
           y="182.36218"
           x="-380"
           height="110"
           width="200"
           id="rect7385" /></flowRegion><flowPara
         id="flowPara7387">Feedback gain</flowPara></flowRoot>    <g
       ns0:preamble=""
       ns0:text="$k$"
       word-spacing="normal"
       letter-spacing="normal"
       font-size-adjust="none"
       font-stretch="normal"
       font-weight="normal"
       font-variant="normal"
       font-style="normal"
       stroke-miterlimit="10.433"
       xml:space="preserve"
       transform="matrix(3,0,0,-3,-570,2782)"
       id="g7439"
       style="font-style:normal;font-variant:normal;font-weight:normal;font-stretch:normal;letter-spacing:normal;word-spacing:normal;text-anchor:start;fill:none;stroke:#000000;stroke-linecap:butt;stroke-linejoin:miter;stroke-miterlimit:10.43299961;stroke-opacity:1;stroke-dasharray:none;stroke-dashoffset:0"><path
         id="path7441"
         d="m 226.29,713.91 0,0 0,0 0,0 0,0 0,0.01 0,0 0,0 0,0.01 -0.01,0 0,0.01 0,0 0,0 0,0.01 0,0 0,0.01 -0.01,0 0,0.01 0,0 -0.01,0.01 0,0 0,0.01 -0.01,0 0,0 0,0 0,0.01 -0.01,0 0,0 0,0 -0.01,0 0,0.01 0,0 -0.01,0 0,0 -0.01,0 0,0 0,0 -0.01,0 0,0.01 -0.01,0 0,0 -0.01,0 0,0 -0.01,0 -0.01,0 0,0 c -0.23,0 -0.96,-0.08 -1.22,-0.1 -0.07,-0.01 -0.18,-0.02 -0.18,-0.2 0,-0.12 0.09,-0.12 0.23,-0.12 0.48,0 0.5,-0.07 0.5,-0.17 l -0.03,-0.2 -1.44,-5.72 c -0.04,-0.14 -0.04,-0.16 -0.04,-0.22 0,-0.22 0.2,-0.27 0.29,-0.27 0.13,0 0.28,0.08 0.34,0.2 0.05,0.09 0.49,1.93 0.55,2.18 0.34,-0.03 1.16,-0.19 1.16,-0.85 0,-0.06 0,-0.1 -0.03,-0.2 -0.02,-0.12 -0.04,-0.24 -0.04,-0.35 0,-0.59 0.4,-0.98 0.91,-0.98 0.3,0 0.57,0.15 0.79,0.52 0.25,0.44 0.36,0.99 0.36,1.01 0,0.1 -0.09,0.1 -0.12,0.1 -0.1,0 -0.11,-0.05 -0.14,-0.18 -0.2,-0.73 -0.43,-1.24 -0.87,-1.24 -0.19,0 -0.32,0.11 -0.32,0.47 0,0.17 0.04,0.4 0.08,0.56 0.04,0.17 0.04,0.21 0.04,0.31 0,0.64 -0.62,0.93 -1.47,1.04 0.31,0.18 0.63,0.49 0.86,0.73 0.48,0.53 0.93,0.96 1.42,0.96 0.06,0 0.07,0 0.09,-0.01 0.12,-0.02 0.13,-0.02 0.21,-0.08 0.02,-0.01 0.02,-0.02 0.04,-0.04 -0.48,-0.03 -0.57,-0.42 -0.57,-0.54 0,-0.16 0.11,-0.35 0.38,-0.35 0.26,0 0.55,0.22 0.55,0.61 0,0.3 -0.23,0.63 -0.68,0.63 -0.28,0 -0.74,-0.08 -1.45,-0.88 -0.34,-0.38 -0.73,-0.77 -1.11,-0.92 z"
         inkscape:connector-curvature="0"
         style="fill:#000000;stroke-width:0" /></g>  </g>
  <g
     style="font-style:normal;font-variant:normal;font-weight:normal;font-stretch:normal;letter-spacing:normal;word-spacing:normal;text-anchor:start;fill:none;stroke:#000000;stroke-linecap:butt;stroke-linejoin:miter;stroke-miterlimit:10.43299961;stroke-opacity:1;stroke-dasharray:none;stroke-dashoffset:0"
     ns0:preamble=""
     ns0:text="$\\dot{x}=Ax+bu$"
     word-spacing="normal"
     letter-spacing="normal"
     font-size-adjust="none"
     font-stretch="normal"
     font-weight="normal"
     font-variant="normal"
     font-style="normal"
     stroke-miterlimit="10.433"
     xml:space="preserve"
     transform="matrix(4,0,0,-4,-772,3262)"
     id="g6275"><path
       id="path6277"
       d="m 227.08,713.24 0,0.03 0,0.02 0,0.03 -0.01,0.02 0,0.03 -0.01,0.02 -0.01,0.03 -0.01,0.02 -0.01,0.02 -0.01,0.02 -0.01,0.03 -0.02,0.02 -0.01,0.02 -0.02,0.02 -0.01,0.02 -0.02,0.02 -0.02,0.02 -0.02,0.01 -0.02,0.02 -0.02,0.01 -0.02,0.02 -0.02,0.01 -0.02,0.02 -0.03,0.01 -0.02,0.01 -0.03,0.01 -0.02,0 -0.03,0.01 -0.02,0 -0.03,0.01 -0.03,0 -0.03,0 c -0.33,0 -0.53,-0.28 -0.53,-0.53 0,-0.26 0.23,-0.52 0.52,-0.52 0.34,0 0.54,0.28 0.54,0.52 z"
       inkscape:connector-curvature="0"
       style="fill:#000000;stroke-width:0" /><path
       id="path6279"
       d="m 226.76,710.12 0,0.03 0.01,0.03 0.01,0.03 0.01,0.04 0.01,0.04 0.01,0.04 0.01,0.04 0.02,0.05 0.01,0.04 0.02,0.05 0.02,0.05 0.02,0.05 0.02,0.05 0.03,0.05 0.02,0.05 0.03,0.05 0.03,0.05 0.03,0.04 0.03,0.05 0.04,0.04 0.04,0.05 0.04,0.04 0.04,0.04 0.04,0.03 0.05,0.03 0.05,0.03 0.02,0.01 0.03,0.02 0.02,0.01 0.03,0.01 0.03,0.01 0.03,0 0.03,0.01 0.02,0.01 0.04,0 0.03,0 0.03,0.01 0.03,0 c 0.05,0 0.29,0 0.5,-0.13 -0.28,-0.05 -0.48,-0.3 -0.48,-0.54 0,-0.16 0.11,-0.35 0.38,-0.35 0.22,0 0.54,0.18 0.54,0.58 0,0.52 -0.59,0.66 -0.93,0.66 -0.58,0 -0.93,-0.53 -1.04,-0.76 -0.25,0.66 -0.79,0.76 -1.08,0.76 -1.03,0 -1.6,-1.29 -1.6,-1.53 0,-0.1 0.1,-0.1 0.12,-0.1 0.08,0 0.11,0.02 0.13,0.11 0.34,1.05 0.99,1.3 1.33,1.3 0.19,0 0.54,-0.09 0.54,-0.67 0,-0.31 -0.17,-0.97 -0.54,-2.36 -0.16,-0.62 -0.51,-1.04 -0.94,-1.04 -0.06,0 -0.29,0 -0.5,0.13 0.25,0.05 0.47,0.26 0.47,0.54 0,0.27 -0.22,0.35 -0.37,0.35 -0.3,0 -0.55,-0.26 -0.55,-0.58 0,-0.46 0.5,-0.65 0.94,-0.65 0.65,0 1.01,0.69 1.04,0.75 0.12,-0.37 0.48,-0.75 1.07,-0.75 1.03,0 1.6,1.28 1.6,1.53 0,0.1 -0.09,0.1 -0.12,0.1 -0.09,0 -0.11,-0.05 -0.13,-0.11 -0.33,-1.07 -1.01,-1.31 -1.33,-1.31 -0.38,0 -0.54,0.32 -0.54,0.66 0,0.22 0.06,0.44 0.17,0.87 z"
       inkscape:connector-curvature="0"
       style="fill:#000000;stroke-width:0" /><path
       id="path6281"
       d="m 238.73,710.37 0.03,0 0.03,0 0.02,0 0.02,0.01 0.01,0 0.02,0 0.01,0 0.02,0 0.01,0 0.01,0.01 0.02,0 0.01,0 0.01,0.01 0.01,0 0.02,0.01 0.01,0 0.01,0.01 0.01,0.01 0.01,0.01 0.01,0.01 0,0.01 0.01,0 0,0.01 0,0 0.01,0.01 0,0.01 0,0 0.01,0.01 0,0.01 0,0 0,0.01 0,0.01 0,0.01 0,0.01 0.01,0 0,0.01 0,0.01 c 0,0.2 -0.19,0.2 -0.33,0.2 h -5.96 c -0.14,0 -0.33,0 -0.33,-0.2 0,-0.2 0.19,-0.2 0.34,-0.2 z"
       inkscape:connector-curvature="0"
       style="fill:#000000;stroke-width:0" /><path
       id="path6283"
       d="m 238.74,708.45 0.01,0 0.01,0 0.03,0 0.03,0 0.01,0 0.02,0 0.01,0 0.02,0 0.01,0 0.01,0.01 0.02,0 0.01,0 0.01,0.01 0.01,0 0.02,0.01 0.01,0 0.01,0.01 0.01,0 0.01,0.01 0.01,0.01 0.01,0.01 0,0 0,0.01 0.01,0.01 0,0 0,0.01 0.01,0 0,0.01 0,0.01 0.01,0 0,0.01 0,0.01 0,0 0,0.01 0,0.01 0,0.01 0.01,0.01 0,0.01 0,0.01 c 0,0.19 -0.19,0.19 -0.34,0.19 h -5.94 c -0.15,0 -0.34,0 -0.34,-0.19 0,-0.2 0.19,-0.2 0.33,-0.2 z"
       inkscape:connector-curvature="0"
       style="fill:#000000;stroke-width:0" /><path
       id="path6285"
       d="m 244.19,708.27 -0.04,-0.06 -0.03,-0.06 -0.04,-0.06 -0.04,-0.05 -0.04,-0.05 -0.03,-0.04 -0.04,-0.05 -0.04,-0.04 -0.03,-0.04 -0.04,-0.04 -0.04,-0.03 -0.04,-0.03 -0.03,-0.03 -0.04,-0.03 -0.04,-0.02 -0.04,-0.03 -0.03,-0.02 -0.04,-0.02 -0.04,-0.02 -0.04,-0.02 -0.04,-0.01 -0.04,-0.01 -0.03,-0.02 -0.04,-0.01 -0.04,-0.01 -0.04,-0.01 -0.04,0 -0.04,-0.01 -0.08,-0.01 -0.08,-0.01 c -0.12,-0.01 -0.21,-0.01 -0.21,-0.2 0,-0.06 0.05,-0.11 0.13,-0.11 0.26,0 0.57,0.04 0.85,0.04 0.33,0 0.68,-0.04 1,-0.04 0.06,0 0.19,0 0.19,0.19 0,0.11 -0.09,0.12 -0.16,0.12 -0.23,0.02 -0.47,0.1 -0.47,0.35 0,0.12 0.06,0.23 0.14,0.37 l 0.76,1.27 h 2.49 l -0.03,0.31 h -2.28 l 1.96,3.28 0.32,-3.28 0.03,-0.31 c 0.02,-0.21 0.16,-1.56 0.16,-1.66 0,-0.3 -0.52,-0.33 -0.72,-0.33 -0.13,0 -0.23,0 -0.23,-0.2 0,-0.11 0.12,-0.11 0.14,-0.11 0.4,0 0.83,0.04 1.24,0.04 0.25,0 0.87,-0.04 1.12,-0.04 0.06,0 0.18,0 0.18,0.2 0,0.11 -0.1,0.11 -0.23,0.11 -0.61,0 -0.61,0.07 -0.64,0.36 L 248.1,714 c -0.02,0.2 -0.02,0.24 -0.19,0.24 -0.16,0 -0.2,-0.07 -0.26,-0.17 z"
       inkscape:connector-curvature="0"
       style="fill:#000000;stroke-width:0" /><path
       id="path6287"
       d="m 253.2,710.12 0.01,0.03 0.01,0.03 0.01,0.03 0.01,0.04 0.01,0.04 0.01,0.04 0.01,0.04 0.02,0.05 0.01,0.04 0.02,0.05 0.02,0.05 0.02,0.05 0.02,0.05 0.02,0.05 0.03,0.05 0.03,0.05 0.03,0.05 0.03,0.04 0.03,0.05 0.04,0.04 0.03,0.05 0.04,0.04 0.05,0.04 0.04,0.03 0.05,0.03 0.04,0.03 0.03,0.01 0.03,0.02 0.02,0.01 0.03,0.01 0.03,0.01 0.03,0 0.02,0.01 0.03,0.01 0.03,0 0.04,0 0.03,0.01 0.03,0 c 0.05,0 0.29,0 0.5,-0.13 -0.28,-0.05 -0.48,-0.3 -0.48,-0.54 0,-0.16 0.11,-0.35 0.38,-0.35 0.22,0 0.53,0.18 0.53,0.58 0,0.52 -0.58,0.66 -0.92,0.66 -0.58,0 -0.93,-0.53 -1.05,-0.76 -0.24,0.66 -0.78,0.76 -1.07,0.76 -1.04,0 -1.6,-1.29 -1.6,-1.53 0,-0.1 0.1,-0.1 0.12,-0.1 0.08,0 0.11,0.02 0.13,0.11 0.34,1.05 0.99,1.3 1.33,1.3 0.19,0 0.54,-0.09 0.54,-0.67 0,-0.31 -0.17,-0.97 -0.54,-2.36 -0.16,-0.62 -0.51,-1.04 -0.94,-1.04 -0.07,0 -0.29,0 -0.5,0.13 0.25,0.05 0.47,0.26 0.47,0.54 0,0.27 -0.22,0.35 -0.37,0.35 -0.3,0 -0.55,-0.26 -0.55,-0.58 0,-0.46 0.5,-0.65 0.93,-0.65 0.66,0 1.02,0.69 1.05,0.75 0.12,-0.37 0.48,-0.75 1.07,-0.75 1.03,0 1.6,1.28 1.6,1.53 0,0.1 -0.09,0.1 -0.12,0.1 -0.09,0 -0.11,-0.05 -0.13,-0.11 -0.33,-1.07 -1.01,-1.31 -1.33,-1.31 -0.38,0 -0.54,0.32 -0.54,0.66 0,0.22 0.06,0.44 0.17,0.87 z"
       inkscape:connector-curvature="0"
       style="fill:#000000;stroke-width:0" /><path
       id="path6289"
       d="m 261.86,709.41 h 2.77 c 0.14,0 0.33,0 0.33,0.2 0,0.2 -0.19,0.2 -0.33,0.2 h -2.77 v 2.78 c 0,0.14 0,0.33 -0.2,0.33 -0.2,0 -0.2,-0.19 -0.2,-0.33 v -2.78 h -2.79 c -0.13,0 -0.32,0 -0.32,-0.2 0,-0.2 0.19,-0.2 0.32,-0.2 h 2.79 v -2.78 c 0,-0.14 0,-0.33 0.2,-0.33 0.2,0 0.2,0.19 0.2,0.33 z"
       inkscape:connector-curvature="0"
       style="fill:#000000;stroke-width:0" /><path
       id="path6291"
       d="m 270.13,713.91 0,0 0,0 0,0 0,0 0,0.01 0,0 0,0 0,0.01 0,0 0,0.01 0,0 -0.01,0 0,0.01 0,0 0,0.01 0,0 -0.01,0.01 0,0 0,0.01 -0.01,0 0,0.01 0,0 -0.01,0 0,0 0,0.01 -0.01,0 0,0 0,0 0,0 -0.01,0.01 0,0 -0.01,0 0,0 0,0 -0.01,0 0,0 -0.01,0 0,0.01 -0.01,0 0,0 -0.01,0 0,0 -0.01,0 0,0 -0.01,0 c -0.23,0 -0.95,-0.08 -1.21,-0.1 -0.08,-0.01 -0.19,-0.02 -0.19,-0.2 0,-0.12 0.09,-0.12 0.24,-0.12 0.47,0 0.49,-0.07 0.49,-0.17 0,-0.07 -0.09,-0.4 -0.13,-0.61 l -0.82,-3.24 c -0.12,-0.5 -0.16,-0.66 -0.16,-1 0,-0.95 0.53,-1.56 1.26,-1.56 v 0.21 c -0.34,0 -0.66,0.27 -0.66,1.01 0,0.19 0,0.37 0.16,1 l 0.22,0.92 c 0.05,0.21 0.05,0.23 0.14,0.34 0.49,0.65 0.94,0.8 1.2,0.8 0.36,0 0.63,-0.3 0.63,-0.94 0,-0.58 -0.33,-1.72 -0.51,-2.1 -0.33,-0.67 -0.79,-1.03 -1.18,-1.03 v -0.21 c 1.18,0 2.4,1.48 2.4,2.91 0,0.9 -0.53,1.59 -1.32,1.59 -0.46,0 -0.87,-0.29 -1.17,-0.6 z"
       inkscape:connector-curvature="0"
       style="fill:#000000;stroke-width:0" /><path
       id="path6293"
       d="m 275.51,707.68 0.01,-0.04 0.01,-0.03 0.02,-0.04 0.01,-0.03 0.02,-0.04 0.02,-0.03 0.01,-0.03 0.02,-0.03 0.03,-0.03 0.02,-0.03 0.02,-0.03 0.03,-0.03 0.02,-0.02 0.03,-0.03 0.03,-0.02 0.02,-0.02 0.03,-0.03 0.03,-0.01 0.03,-0.02 0.04,-0.02 0.03,-0.02 0.03,-0.01 0.04,-0.02 0.03,-0.01 0.04,-0.01 0.03,-0.01 0.04,-0.01 0.04,0 0.04,-0.01 0.04,0 0.04,0 0.04,0 c 0.34,0 0.57,0.22 0.73,0.54 0.17,0.36 0.3,0.97 0.3,0.99 0,0.1 -0.09,0.1 -0.12,0.1 -0.1,0 -0.11,-0.05 -0.14,-0.18 -0.14,-0.56 -0.33,-1.24 -0.74,-1.24 -0.21,0 -0.31,0.13 -0.31,0.46 0,0.22 0.12,0.69 0.2,1.03 l 0.28,1.08 c 0.02,0.15 0.12,0.52 0.16,0.67 0.05,0.23 0.15,0.61 0.15,0.67 0,0.18 -0.14,0.27 -0.29,0.27 -0.04,0 -0.3,-0.01 -0.38,-0.35 -0.19,-0.73 -0.63,-2.47 -0.75,-2.99 -0.01,-0.04 -0.41,-0.84 -1.13,-0.84 -0.52,0 -0.62,0.45 -0.62,0.82 0,0.55 0.28,1.34 0.54,2.03 0.12,0.29 0.17,0.43 0.17,0.62 0,0.45 -0.32,0.82 -0.82,0.82 -0.95,0 -1.31,-1.44 -1.31,-1.53 0,-0.1 0.1,-0.1 0.12,-0.1 0.1,0 0.11,0.02 0.16,0.18 0.24,0.86 0.62,1.23 1,1.23 0.09,0 0.25,-0.01 0.25,-0.33 0,-0.24 -0.11,-0.53 -0.17,-0.68 -0.37,-0.98 -0.58,-1.6 -0.58,-2.08 0,-0.95 0.69,-1.19 1.23,-1.19 0.65,0 1.01,0.44 1.18,0.66 z"
       inkscape:connector-curvature="0"
       style="fill:#000000;stroke-width:0" /></g></svg>
